<svg class="rich-terminal" viewBox="0 0 1726 1074.8" xmlns="http://www.w3.org/2000/svg">
    <!-- Generated with Rich https://www.textualize.io -->
    <style>

    @font-face {
        font-family: "Fira Code";
        src: local("FiraCode-Regular"),
                url("https://cdnjs.cloudflare.com/ajax/libs/firacode/6.2.0/woff2/FiraCode-Regular.woff2") format("woff2"),
                url("https://cdnjs.cloudflare.com/ajax/libs/firacode/6.2.0/woff/FiraCode-Regular.woff") format("woff");
        font-style: normal;
        font-weight: 400;
    }
    @font-face {
        font-family: "Fira Code";
        src: local("FiraCode-Bold"),
                url("https://cdnjs.cloudflare.com/ajax/libs/firacode/6.2.0/woff2/FiraCode-Bold.woff2") format("woff2"),
                url("https://cdnjs.cloudflare.com/ajax/libs/firacode/6.2.0/woff/FiraCode-Bold.woff") format("woff");
        font-style: bold;
        font-weight: 700;
    }

    .terminal-3888784750-matrix {
        font-family: Fira Code, monospace;
        font-size: 20px;
        line-height: 24.4px;
        font-variant-east-asian: full-width;
    }

    .terminal-3888784750-title {
        font-size: 18px;
        font-weight: bold;
        font-family: arial;
    }

    .terminal-3888784750-r1 { fill: #c5c8c6 }
.terminal-3888784750-r2 { fill: #fea62b }
.terminal-3888784750-r3 { fill: #e0e0e0;font-weight: bold }
.terminal-3888784750-r4 { fill: #e0e0e0 }
.terminal-3888784750-r5 { fill: #00ffff;font-weight: bold }
    </style>

    <defs>
    <clipPath id="terminal-3888784750-clip-terminal">
      <rect x="0" y="0" width="1707.0" height="1023.8" />
    </clipPath>
    <clipPath id="terminal-3888784750-line-0">
    <rect x="0" y="1.5" width="1708" height="24.65"/>
            </clipPath>
<clipPath id="terminal-3888784750-line-1">
    <rect x="0" y="25.9" width="1708" height="24.65"/>
            </clipPath>
<clipPath id="terminal-3888784750-line-2">
    <rect x="0" y="50.3" width="1708" height="24.65"/>
            </clipPath>
<clipPath id="terminal-3888784750-line-3">
    <rect x="0" y="74.7" width="1708" height="24.65"/>
            </clipPath>
<clipPath id="terminal-3888784750-line-4">
    <rect x="0" y="99.1" width="1708" height="24.65"/>
            </clipPath>
<clipPath id="terminal-3888784750-line-5">
    <rect x="0" y="123.5" width="1708" height="24.65"/>
            </clipPath>
<clipPath id="terminal-3888784750-line-6">
    <rect x="0" y="147.9" width="1708" height="24.65"/>
            </clipPath>
<clipPath id="terminal-3888784750-line-7">
    <rect x="0" y="172.3" width="1708" height="24.65"/>
            </clipPath>
<clipPath id="terminal-3888784750-line-8">
    <rect x="0" y="196.7" width="1708" height="24.65"/>
            </clipPath>
<clipPath id="terminal-3888784750-line-9">
    <rect x="0" y="221.1" width="1708" height="24.65"/>
            </clipPath>
<clipPath id="terminal-3888784750-line-10">
    <rect x="0" y="245.5" width="1708" height="24.65"/>
            </clipPath>
<clipPath id="terminal-3888784750-line-11">
    <rect x="0" y="269.9" width="1708" height="24.65"/>
            </clipPath>
<clipPath id="terminal-3888784750-line-12">
    <rect x="0" y="294.3" width="1708" height="24.65"/>
            </clipPath>
<clipPath id="terminal-3888784750-line-13">
    <rect x="0" y="318.7" width="1708" height="24.65"/>
            </clipPath>
<clipPath id="terminal-3888784750-line-14">
    <rect x="0" y="343.1" width="1708" height="24.65"/>
            </clipPath>
<clipPath id="terminal-3888784750-line-15">
    <rect x="0" y="367.5" width="1708" height="24.65"/>
            </clipPath>
<clipPath id="terminal-3888784750-line-16">
    <rect x="0" y="391.9" width="1708" height="24.65"/>
            </clipPath>
<clipPath id="terminal-3888784750-line-17">
    <rect x="0" y="416.3" width="1708" height="24.65"/>
            </clipPath>
<clipPath id="terminal-3888784750-line-18">
    <rect x="0" y="440.7" width="1708" height="24.65"/>
            </clipPath>
<clipPath id="terminal-3888784750-line-19">
    <rect x="0" y="465.1" width="1708" height="24.65"/>
            </clipPath>
<clipPath id="terminal-3888784750-line-20">
    <rect x="0" y="489.5" width="1708" height="24.65"/>
            </clipPath>
<clipPath id="terminal-3888784750-line-21">
    <rect x="0" y="513.9" width="1708" height="24.65"/>
            </clipPath>
<clipPath id="terminal-3888784750-line-22">
    <rect x="0" y="538.3" width="1708" height="24.65"/>
            </clipPath>
<clipPath id="terminal-3888784750-line-23">
    <rect x="0" y="562.7" width="1708" height="24.65"/>
            </clipPath>
<clipPath id="terminal-3888784750-line-24">
    <rect x="0" y="587.1" width="1708" height="24.65"/>
            </clipPath>
<clipPath id="terminal-3888784750-line-25">
    <rect x="0" y="611.5" width="1708" height="24.65"/>
            </clipPath>
<clipPath id="terminal-3888784750-line-26">
    <rect x="0" y="635.9" width="1708" height="24.65"/>
            </clipPath>
<clipPath id="terminal-3888784750-line-27">
    <rect x="0" y="660.3" width="1708" height="24.65"/>
            </clipPath>
<clipPath id="terminal-3888784750-line-28">
    <rect x="0" y="684.7" width="1708" height="24.65"/>
            </clipPath>
<clipPath id="terminal-3888784750-line-29">
    <rect x="0" y="709.1" width="1708" height="24.65"/>
            </clipPath>
<clipPath id="terminal-3888784750-line-30">
    <rect x="0" y="733.5" width="1708" height="24.65"/>
            </clipPath>
<clipPath id="terminal-3888784750-line-31">
    <rect x="0" y="757.9" width="1708" height="24.65"/>
            </clipPath>
<clipPath id="terminal-3888784750-line-32">
    <rect x="0" y="782.3" width="1708" height="24.65"/>
            </clipPath>
<clipPath id="terminal-3888784750-line-33">
    <rect x="0" y="806.7" width="1708" height="24.65"/>
            </clipPath>
<clipPath id="terminal-3888784750-line-34">
    <rect x="0" y="831.1" width="1708" height="24.65"/>
            </clipPath>
<clipPath id="terminal-3888784750-line-35">
    <rect x="0" y="855.5" width="1708" height="24.65"/>
            </clipPath>
<clipPath id="terminal-3888784750-line-36">
    <rect x="0" y="879.9" width="1708" height="24.65"/>
            </clipPath>
<clipPath id="terminal-3888784750-line-37">
    <rect x="0" y="904.3" width="1708" height="24.65"/>
            </clipPath>
<clipPath id="terminal-3888784750-line-38">
    <rect x="0" y="928.7" width="1708" height="24.65"/>
            </clipPath>
<clipPath id="terminal-3888784750-line-39">
    <rect x="0" y="953.1" width="1708" height="24.65"/>
            </clipPath>
<clipPath id="terminal-3888784750-line-40">
    <rect x="0" y="977.5" width="1708" height="24.65"/>
            </clipPath>
    </defs>

    <rect fill="#292929" stroke="rgba(255,255,255,0.35)" stroke-width="1" x="1" y="1" width="1724" height="1072.8" rx="8"/><text class="terminal-3888784750-title" fill="#c5c8c6" text-anchor="middle" x="862" y="27">Claude&#160;Cockpit</text>
            <g transform="translate(26,22)">
            <circle cx="0" cy="0" r="7" fill="#ff5f57"/>
            <circle cx="22" cy="0" r="7" fill="#febc2e"/>
            <circle cx="44" cy="0" r="7" fill="#28c840"/>
            </g>
        
    <g transform="translate(9, 41)" clip-path="url(#terminal-3888784750-clip-terminal)">
    <rect fill="#1e1e1e" x="0" y="1.5" width="1708" height="24.65" shape-rendering="crispEdges"/><rect fill="#1e1e1e" x="0" y="25.9" width="1708" height="24.65" shape-rendering="crispEdges"/><rect fill="#1e1e1e" x="0" y="50.3" width="1708" height="24.65" shape-rendering="crispEdges"/><rect fill="#1e1e1e" x="0" y="74.7" width="1708" height="24.65" shape-rendering="crispEdges"/><rect fill="#1e1e1e" x="0" y="99.1" width="488" height="24.65" shape-rendering="crispEdges"/><rect fill="#1e1e1e" x="488" y="99.1" width="12.2" height="24.65" shape-rendering="crispEdges"/><rect fill="#1e1e1e" x="500.2" y="99.1" width="707.6" height="24.65" shape-rendering="crispEdges"/><rect fill="#1e1e1e" x="1207.8" y="99.1" width="12.2" height="24.65" shape-rendering="crispEdges"/><rect fill="#1e1e1e" x="1220" y="99.1" width="488" height="24.65" shape-rendering="crispEdges"/><rect fill="#1e1e1e" x="0" y="123.5" width="488" height="24.65" shape-rendering="crispEdges"/><rect fill="#1e1e1e" x="488" y="123.5" width="12.2" height="24.65" shape-rendering="crispEdges"/><rect fill="#1e1e1e" x="500.2" y="123.5" width="707.6" height="24.65" shape-rendering="crispEdges"/><rect fill="#1e1e1e" x="1207.8" y="123.5" width="12.2" height="24.65" shape-rendering="crispEdges"/><rect fill="#1e1e1e" x="1220" y="123.5" width="488" height="24.65" shape-rendering="crispEdges"/><rect fill="#1e1e1e" x="0" y="147.9" width="488" height="24.65" shape-rendering="crispEdges"/><rect fill="#1e1e1e" x="488" y="147.9" width="12.2" height="24.65" shape-rendering="crispEdges"/><rect fill="#1e1e1e" x="500.2" y="147.9" width="24.4" height="24.65" shape-rendering="crispEdges"/><rect fill="#1e1e1e" x="524.6" y="147.9" width="170.8" height="24.65" shape-rendering="crispEdges"/><rect fill="#1e1e1e" x="695.4" y="147.9" width="439.2" height="24.65" shape-rendering="crispEdges"/><rect fill="#1e1e1e" x="1134.6" y="147.9" width="48.8" height="24.65" shape-rendering="crispEdges"/><rect fill="#1e1e1e" x="1183.4" y="147.9" width="24.4" height="24.65" shape-rendering="crispEdges"/><rect fill="#1e1e1e" x="1207.8" y="147.9" width="12.2" height="24.65" shape-rendering="crispEdges"/><rect fill="#1e1e1e" x="1220" y="147.9" width="488" height="24.65" shape-rendering="crispEdges"/><rect fill="#1e1e1e" x="0" y="172.3" width="488" height="24.65" shape-rendering="crispEdges"/><rect fill="#1e1e1e" x="488" y="172.3" width="12.2" height="24.65" shape-rendering="crispEdges"/><rect fill="#1e1e1e" x="500.2" y="172.3" width="24.4" height="24.65" shape-rendering="crispEdges"/><rect fill="#1e1e1e" x="524.6" y="172.3" width="61" height="24.65" shape-rendering="crispEdges"/><rect fill="#1e1e1e" x="585.6" y="172.3" width="597.8" height="24.65" shape-rendering="crispEdges"/><rect fill="#1e1e1e" x="1183.4" y="172.3" width="24.4" height="24.65" shape-rendering="crispEdges"/><rect fill="#1e1e1e" x="1207.8" y="172.3" width="12.2" height="24.65" shape-rendering="crispEdges"/><rect fill="#1e1e1e" x="1220" y="172.3" width="488" height="24.65" shape-rendering="crispEdges"/><rect fill="#1e1e1e" x="0" y="196.7" width="488" height="24.65" shape-rendering="crispEdges"/><rect fill="#1e1e1e" x="488" y="196.7" width="12.2" height="24.65" shape-rendering="crispEdges"/><rect fill="#1e1e1e" x="500.2" y="196.7" width="24.4" height="24.65" shape-rendering="crispEdges"/><rect fill="#1e1e1e" x="524.6" y="196.7" width="0" height="24.65" shape-rendering="crispEdges"/><rect fill="#1e1e1e" x="524.6" y="196.7" width="658.8" height="24.65" shape-rendering="crispEdges"/><rect fill="#1e1e1e" x="1183.4" y="196.7" width="24.4" height="24.65" shape-rendering="crispEdges"/><rect fill="#1e1e1e" x="1207.8" y="196.7" width="12.2" height="24.65" shape-rendering="crispEdges"/><rect fill="#1e1e1e" x="1220" y="196.7" width="488" height="24.65" shape-rendering="crispEdges"/><rect fill="#1e1e1e" x="0" y="221.1" width="488" height="24.65" shape-rendering="crispEdges"/><rect fill="#1e1e1e" x="488" y="221.1" width="12.2" height="24.65" shape-rendering="crispEdges"/><rect fill="#1e1e1e" x="500.2" y="221.1" width="24.4" height="24.65" shape-rendering="crispEdges"/><rect fill="#1e1e1e" x="524.6" y="221.1" width="122" height="24.65" shape-rendering="crispEdges"/><rect fill="#1e1e1e" x="646.6" y="221.1" width="536.8" height="24.65" shape-rendering="crispEdges"/><rect fill="#1e1e1e" x="1183.4" y="221.1" width="24.4" height="24.65" shape-rendering="crispEdges"/><rect fill="#1e1e1e" x="1207.8" y="221.1" width="12.2" height="24.65" shape-rendering="crispEdges"/><rect fill="#1e1e1e" x="1220" y="221.1" width="488" height="24.65" shape-rendering="crispEdges"/><rect fill="#1e1e1e" x="0" y="245.5" width="488" height="24.65" shape-rendering="crispEdges"/><rect fill="#1e1e1e" x="488" y="245.5" width="12.2" height="24.65" shape-rendering="crispEdges"/><rect fill="#1e1e1e" x="500.2" y="245.5" width="24.4" height="24.65" shape-rendering="crispEdges"/><rect fill="#1e1e1e" x="524.6" y="245.5" width="24.4" height="24.65" shape-rendering="crispEdges"/><rect fill="#1e1e1e" x="549" y="245.5" width="12.2" height="24.65" shape-rendering="crispEdges"/><rect fill="#1e1e1e" x="561.2" y="245.5" width="244" height="24.65" shape-rendering="crispEdges"/><rect fill="#1e1e1e" x="805.2" y="245.5" width="12.2" height="24.65" shape-rendering="crispEdges"/><rect fill="#1e1e1e" x="817.4" y="245.5" width="134.2" height="24.65" shape-rendering="crispEdges"/><rect fill="#1e1e1e" x="951.6" y="245.5" width="231.8" height="24.65" shape-rendering="crispEdges"/><rect fill="#1e1e1e" x="1183.4" y="245.5" width="24.4" height="24.65" shape-rendering="crispEdges"/><rect fill="#1e1e1e" x="1207.8" y="245.5" width="12.2" height="24.65" shape-rendering="crispEdges"/><rect fill="#1e1e1e" x="1220" y="245.5" width="488" height="24.65" shape-rendering="crispEdges"/><rect fill="#1e1e1e" x="0" y="269.9" width="488" height="24.65" shape-rendering="crispEdges"/><rect fill="#1e1e1e" x="488" y="269.9" width="12.2" height="24.65" shape-rendering="crispEdges"/><rect fill="#1e1e1e" x="500.2" y="269.9" width="24.4" height="24.65" shape-rendering="crispEdges"/><rect fill="#1e1e1e" x="524.6" y="269.9" width="24.4" height="24.65" shape-rendering="crispEdges"/><rect fill="#1e1e1e" x="549" y="269.9" width="12.2" height="24.65" shape-rendering="crispEdges"/><rect fill="#1e1e1e" x="561.2" y="269.9" width="244" height="24.65" shape-rendering="crispEdges"/><rect fill="#1e1e1e" x="805.2" y="269.9" width="12.2" height="24.65" shape-rendering="crispEdges"/><rect fill="#1e1e1e" x="817.4" y="269.9" width="134.2" height="24.65" shape-rendering="crispEdges"/><rect fill="#1e1e1e" x="951.6" y="269.9" width="231.8" height="24.65" shape-rendering="crispEdges"/><rect fill="#1e1e1e" x="1183.4" y="269.9" width="24.4" height="24.65" shape-rendering="crispEdges"/><rect fill="#1e1e1e" x="1207.8" y="269.9" width="12.2" height="24.65" shape-rendering="crispEdges"/><rect fill="#1e1e1e" x="1220" y="269.9" width="488" height="24.65" shape-rendering="crispEdges"/><rect fill="#1e1e1e" x="0" y="294.3" width="488" height="24.65" shape-rendering="crispEdges"/><rect fill="#1e1e1e" x="488" y="294.3" width="12.2" height="24.65" shape-rendering="crispEdges"/><rect fill="#1e1e1e" x="500.2" y="294.3" width="24.4" height="24.65" shape-rendering="crispEdges"/><rect fill="#1e1e1e" x="524.6" y="294.3" width="24.4" height="24.65" shape-rendering="crispEdges"/><rect fill="#1e1e1e" x="549" y="294.3" width="12.2" height="24.65" shape-rendering="crispEdges"/><rect fill="#1e1e1e" x="561.2" y="294.3" width="244" height="24.65" shape-rendering="crispEdges"/><rect fill="#1e1e1e" x="805.2" y="294.3" width="12.2" height="24.65" shape-rendering="crispEdges"/><rect fill="#1e1e1e" x="817.4" y="294.3" width="170.8" height="24.65" shape-rendering="crispEdges"/><rect fill="#1e1e1e" x="988.2" y="294.3" width="195.2" height="24.65" shape-rendering="crispEdges"/><rect fill="#1e1e1e" x="1183.4" y="294.3" width="24.4" height="24.65" shape-rendering="crispEdges"/><rect fill="#1e1e1e" x="1207.8" y="294.3" width="12.2" height="24.65" shape-rendering="crispEdges"/><rect fill="#1e1e1e" x="1220" y="294.3" width="488" height="24.65" shape-rendering="crispEdges"/><rect fill="#1e1e1e" x="0" y="318.7" width="488" height="24.65" shape-rendering="crispEdges"/><rect fill="#1e1e1e" x="488" y="318.7" width="12.2" height="24.65" shape-rendering="crispEdges"/><rect fill="#1e1e1e" x="500.2" y="318.7" width="24.4" height="24.65" shape-rendering="crispEdges"/><rect fill="#1e1e1e" x="524.6" y="318.7" width="0" height="24.65" shape-rendering="crispEdges"/><rect fill="#1e1e1e" x="524.6" y="318.7" width="658.8" height="24.65" shape-rendering="crispEdges"/><rect fill="#1e1e1e" x="1183.4" y="318.7" width="24.4" height="24.65" shape-rendering="crispEdges"/><rect fill="#1e1e1e" x="1207.8" y="318.7" width="12.2" height="24.65" shape-rendering="crispEdges"/><rect fill="#1e1e1e" x="1220" y="318.7" width="488" height="24.65" shape-rendering="crispEdges"/><rect fill="#1e1e1e" x="0" y="343.1" width="488" height="24.65" shape-rendering="crispEdges"/><rect fill="#1e1e1e" x="488" y="343.1" width="12.2" height="24.65" shape-rendering="crispEdges"/><rect fill="#1e1e1e" x="500.2" y="343.1" width="24.4" height="24.65" shape-rendering="crispEdges"/><rect fill="#1e1e1e" x="524.6" y="343.1" width="85.4" height="24.65" shape-rendering="crispEdges"/><rect fill="#1e1e1e" x="610" y="343.1" width="573.4" height="24.65" shape-rendering="crispEdges"/><rect fill="#1e1e1e" x="1183.4" y="343.1" width="24.4" height="24.65" shape-rendering="crispEdges"/><rect fill="#1e1e1e" x="1207.8" y="343.1" width="12.2" height="24.65" shape-rendering="crispEdges"/><rect fill="#1e1e1e" x="1220" y="343.1" width="488" height="24.65" shape-rendering="crispEdges"/><rect fill="#1e1e1e" x="0" y="367.5" width="488" height="24.65" shape-rendering="crispEdges"/><rect fill="#1e1e1e" x="488" y="367.5" width="12.2" height="24.65" shape-rendering="crispEdges"/><rect fill="#1e1e1e" x="500.2" y="367.5" width="24.4" height="24.65" shape-rendering="crispEdges"/><rect fill="#1e1e1e" x="524.6" y="367.5" width="24.4" height="24.65" shape-rendering="crispEdges"/><rect fill="#1e1e1e" x="549" y="367.5" width="12.2" height="24.65" shape-rendering="crispEdges"/><rect fill="#1e1e1e" x="561.2" y="367.5" width="341.6" height="24.65" shape-rendering="crispEdges"/><rect fill="#1e1e1e" x="902.8" y="367.5" width="280.6" height="24.65" shape-rendering="crispEdges"/><rect fill="#1e1e1e" x="1183.4" y="367.5" width="24.4" height="24.65" shape-rendering="crispEdges"/><rect fill="#1e1e1e" x="1207.8" y="367.5" width="12.2" height="24.65" shape-rendering="crispEdges"/><rect fill="#1e1e1e" x="1220" y="367.5" width="488" height="24.65" shape-rendering="crispEdges"/><rect fill="#1e1e1e" x="0" y="391.9" width="488" height="24.65" shape-rendering="crispEdges"/><rect fill="#1e1e1e" x="488" y="391.9" width="12.2" height="24.65" shape-rendering="crispEdges"/><rect fill="#1e1e1e" x="500.2" y="391.9" width="24.4" height="24.65" shape-rendering="crispEdges"/><rect fill="#1e1e1e" x="524.6" y="391.9" width="24.4" height="24.65" shape-rendering="crispEdges"/><rect fill="#1e1e1e" x="549" y="391.9" width="36.6" height="24.65" shape-rendering="crispEdges"/><rect fill="#1e1e1e" x="585.6" y="391.9" width="268.4" height="24.65" shape-rendering="crispEdges"/><rect fill="#1e1e1e" x="854" y="391.9" width="329.4" height="24.65" shape-rendering="crispEdges"/><rect fill="#1e1e1e" x="1183.4" y="391.9" width="24.4" height="24.65" shape-rendering="crispEdges"/><rect fill="#1e1e1e" x="1207.8" y="391.9" width="12.2" height="24.65" shape-rendering="crispEdges"/><rect fill="#1e1e1e" x="1220" y="391.9" width="488" height="24.65" shape-rendering="crispEdges"/><rect fill="#1e1e1e" x="0" y="416.3" width="488" height="24.65" shape-rendering="crispEdges"/><rect fill="#1e1e1e" x="488" y="416.3" width="12.2" height="24.65" shape-rendering="crispEdges"/><rect fill="#1e1e1e" x="500.2" y="416.3" width="24.4" height="24.65" shape-rendering="crispEdges"/><rect fill="#1e1e1e" x="524.6" y="416.3" width="24.4" height="24.65" shape-rendering="crispEdges"/><rect fill="#1e1e1e" x="549" y="416.3" width="12.2" height="24.65" shape-rendering="crispEdges"/><rect fill="#1e1e1e" x="561.2" y="416.3" width="451.4" height="24.65" shape-rendering="crispEdges"/><rect fill="#1e1e1e" x="1012.6" y="416.3" width="170.8" height="24.65" shape-rendering="crispEdges"/><rect fill="#1e1e1e" x="1183.4" y="416.3" width="24.4" height="24.65" shape-rendering="crispEdges"/><rect fill="#1e1e1e" x="1207.8" y="416.3" width="12.2" height="24.65" shape-rendering="crispEdges"/><rect fill="#1e1e1e" x="1220" y="416.3" width="488" height="24.65" shape-rendering="crispEdges"/><rect fill="#1e1e1e" x="0" y="440.7" width="488" height="24.65" shape-rendering="crispEdges"/><rect fill="#1e1e1e" x="488" y="440.7" width="12.2" height="24.65" shape-rendering="crispEdges"/><rect fill="#1e1e1e" x="500.2" y="440.7" width="24.4" height="24.65" shape-rendering="crispEdges"/><rect fill="#1e1e1e" x="524.6" y="440.7" width="24.4" height="24.65" shape-rendering="crispEdges"/><rect fill="#1e1e1e" x="549" y="440.7" width="12.2" height="24.65" shape-rendering="crispEdges"/><rect fill="#1e1e1e" x="561.2" y="440.7" width="305" height="24.65" shape-rendering="crispEdges"/><rect fill="#1e1e1e" x="866.2" y="440.7" width="317.2" height="24.65" shape-rendering="crispEdges"/><rect fill="#1e1e1e" x="1183.4" y="440.7" width="24.4" height="24.65" shape-rendering="crispEdges"/><rect fill="#1e1e1e" x="1207.8" y="440.7" width="12.2" height="24.65" shape-rendering="crispEdges"/><rect fill="#1e1e1e" x="1220" y="440.7" width="488" height="24.65" shape-rendering="crispEdges"/><rect fill="#1e1e1e" x="0" y="465.1" width="488" height="24.65" shape-rendering="crispEdges"/><rect fill="#1e1e1e" x="488" y="465.1" width="12.2" height="24.65" shape-rendering="crispEdges"/><rect fill="#1e1e1e" x="500.2" y="465.1" width="24.4" height="24.65" shape-rendering="crispEdges"/><rect fill="#1e1e1e" x="524.6" y="465.1" width="0" height="24.65" shape-rendering="crispEdges"/><rect fill="#1e1e1e" x="524.6" y="465.1" width="658.8" height="24.65" shape-rendering="crispEdges"/><rect fill="#1e1e1e" x="1183.4" y="465.1" width="24.4" height="24.65" shape-rendering="crispEdges"/><rect fill="#1e1e1e" x="1207.8" y="465.1" width="12.2" height="24.65" shape-rendering="crispEdges"/><rect fill="#1e1e1e" x="1220" y="465.1" width="488" height="24.65" shape-rendering="crispEdges"/><rect fill="#1e1e1e" x="0" y="489.5" width="488" height="24.65" shape-rendering="crispEdges"/><rect fill="#1e1e1e" x="488" y="489.5" width="12.2" height="24.65" shape-rendering="crispEdges"/><rect fill="#1e1e1e" x="500.2" y="489.5" width="24.4" height="24.65" shape-rendering="crispEdges"/><rect fill="#1e1e1e" x="524.6" y="489.5" width="158.6" height="24.65" shape-rendering="crispEdges"/><rect fill="#1e1e1e" x="683.2" y="489.5" width="500.2" height="24.65" shape-rendering="crispEdges"/><rect fill="#1e1e1e" x="1183.4" y="489.5" width="24.4" height="24.65" shape-rendering="crispEdges"/><rect fill="#1e1e1e" x="1207.8" y="489.5" width="12.2" height="24.65" shape-rendering="crispEdges"/><rect fill="#1e1e1e" x="1220" y="489.5" width="488" height="24.65" shape-rendering="crispEdges"/><rect fill="#1e1e1e" x="0" y="513.9" width="488" height="24.65" shape-rendering="crispEdges"/><rect fill="#1e1e1e" x="488" y="513.9" width="12.2" height="24.65" shape-rendering="crispEdges"/><rect fill="#1e1e1e" x="500.2" y="513.9" width="24.4" height="24.65" shape-rendering="crispEdges"/><rect fill="#1e1e1e" x="524.6" y="513.9" width="622.2" height="24.65" shape-rendering="crispEdges"/><rect fill="#1e1e1e" x="1146.8" y="513.9" width="36.6" height="24.65" shape-rendering="crispEdges"/><rect fill="#1e1e1e" x="1183.4" y="513.9" width="24.4" height="24.65" shape-rendering="crispEdges"/><rect fill="#1e1e1e" x="1207.8" y="513.9" width="12.2" height="24.65" shape-rendering="crispEdges"/><rect fill="#1e1e1e" x="1220" y="513.9" width="488" height="24.65" shape-rendering="crispEdges"/><rect fill="#1e1e1e" x="0" y="538.3" width="488" height="24.65" shape-rendering="crispEdges"/><rect fill="#1e1e1e" x="488" y="538.3" width="12.2" height="24.65" shape-rendering="crispEdges"/><rect fill="#1e1e1e" x="500.2" y="538.3" width="24.4" height="24.65" shape-rendering="crispEdges"/><rect fill="#1e1e1e" x="524.6" y="538.3" width="622.2" height="24.65" shape-rendering="crispEdges"/><rect fill="#1e1e1e" x="1146.8" y="538.3" width="36.6" height="24.65" shape-rendering="crispEdges"/><rect fill="#1e1e1e" x="1183.4" y="538.3" width="24.4" height="24.65" shape-rendering="crispEdges"/><rect fill="#1e1e1e" x="1207.8" y="538.3" width="12.2" height="24.65" shape-rendering="crispEdges"/><rect fill="#1e1e1e" x="1220" y="538.3" width="488" height="24.65" shape-rendering="crispEdges"/><rect fill="#1e1e1e" x="0" y="562.7" width="488" height="24.65" shape-rendering="crispEdges"/><rect fill="#1e1e1e" x="488" y="562.7" width="12.2" height="24.65" shape-rendering="crispEdges"/><rect fill="#1e1e1e" x="500.2" y="562.7" width="24.4" height="24.65" shape-rendering="crispEdges"/><rect fill="#1e1e1e" x="524.6" y="562.7" width="585.6" height="24.65" shape-rendering="crispEdges"/><rect fill="#1e1e1e" x="1110.2" y="562.7" width="73.2" height="24.65" shape-rendering="crispEdges"/><rect fill="#1e1e1e" x="1183.4" y="562.7" width="24.4" height="24.65" shape-rendering="crispEdges"/><rect fill="#1e1e1e" x="1207.8" y="562.7" width="12.2" height="24.65" shape-rendering="crispEdges"/><rect fill="#1e1e1e" x="1220" y="562.7" width="488" height="24.65" shape-rendering="crispEdges"/><rect fill="#1e1e1e" x="0" y="587.1" width="488" height="24.65" shape-rendering="crispEdges"/><rect fill="#1e1e1e" x="488" y="587.1" width="12.2" height="24.65" shape-rendering="crispEdges"/><rect fill="#1e1e1e" x="500.2" y="587.1" width="24.4" height="24.65" shape-rendering="crispEdges"/><rect fill="#1e1e1e" x="524.6" y="587.1" width="0" height="24.65" shape-rendering="crispEdges"/><rect fill="#1e1e1e" x="524.6" y="587.1" width="658.8" height="24.65" shape-rendering="crispEdges"/><rect fill="#1e1e1e" x="1183.4" y="587.1" width="24.4" height="24.65" shape-rendering="crispEdges"/><rect fill="#1e1e1e" x="1207.8" y="587.1" width="12.2" height="24.65" shape-rendering="crispEdges"/><rect fill="#1e1e1e" x="1220" y="587.1" width="488" height="24.65" shape-rendering="crispEdges"/><rect fill="#1e1e1e" x="0" y="611.5" width="488" height="24.65" shape-rendering="crispEdges"/><rect fill="#1e1e1e" x="488" y="611.5" width="12.2" height="24.65" shape-rendering="crispEdges"/><rect fill="#1e1e1e" x="500.2" y="611.5" width="24.4" height="24.65" shape-rendering="crispEdges"/><rect fill="#1e1e1e" x="524.6" y="611.5" width="183" height="24.65" shape-rendering="crispEdges"/><rect fill="#1e1e1e" x="707.6" y="611.5" width="475.8" height="24.65" shape-rendering="crispEdges"/><rect fill="#1e1e1e" x="1183.4" y="611.5" width="24.4" height="24.65" shape-rendering="crispEdges"/><rect fill="#1e1e1e" x="1207.8" y="611.5" width="12.2" height="24.65" shape-rendering="crispEdges"/><rect fill="#1e1e1e" x="1220" y="611.5" width="488" height="24.65" shape-rendering="crispEdges"/><rect fill="#1e1e1e" x="0" y="635.9" width="488" height="24.65" shape-rendering="crispEdges"/><rect fill="#1e1e1e" x="488" y="635.9" width="12.2" height="24.65" shape-rendering="crispEdges"/><rect fill="#1e1e1e" x="500.2" y="635.9" width="24.4" height="24.65" shape-rendering="crispEdges"/><rect fill="#1e1e1e" x="524.6" y="635.9" width="24.4" height="24.65" shape-rendering="crispEdges"/><rect fill="#1e1e1e" x="549" y="635.9" width="73.2" height="24.65" shape-rendering="crispEdges"/><rect fill="#1e1e1e" x="622.2" y="635.9" width="427" height="24.65" shape-rendering="crispEdges"/><rect fill="#1e1e1e" x="1049.2" y="635.9" width="134.2" height="24.65" shape-rendering="crispEdges"/><rect fill="#1e1e1e" x="1183.4" y="635.9" width="24.4" height="24.65" shape-rendering="crispEdges"/><rect fill="#1e1e1e" x="1207.8" y="635.9" width="12.2" height="24.65" shape-rendering="crispEdges"/><rect fill="#1e1e1e" x="1220" y="635.9" width="488" height="24.65" shape-rendering="crispEdges"/><rect fill="#1e1e1e" x="0" y="660.3" width="488" height="24.65" shape-rendering="crispEdges"/><rect fill="#1e1e1e" x="488" y="660.3" width="12.2" height="24.65" shape-rendering="crispEdges"/><rect fill="#1e1e1e" x="500.2" y="660.3" width="24.4" height="24.65" shape-rendering="crispEdges"/><rect fill="#1e1e1e" x="524.6" y="660.3" width="24.4" height="24.65" shape-rendering="crispEdges"/><rect fill="#1e1e1e" x="549" y="660.3" width="61" height="24.65" shape-rendering="crispEdges"/><rect fill="#1e1e1e" x="610" y="660.3" width="536.8" height="24.65" shape-rendering="crispEdges"/><rect fill="#1e1e1e" x="1146.8" y="660.3" width="36.6" height="24.65" shape-rendering="crispEdges"/><rect fill="#1e1e1e" x="1183.4" y="660.3" width="24.4" height="24.65" shape-rendering="crispEdges"/><rect fill="#1e1e1e" x="1207.8" y="660.3" width="12.2" height="24.65" shape-rendering="crispEdges"/><rect fill="#1e1e1e" x="1220" y="660.3" width="488" height="24.65" shape-rendering="crispEdges"/><rect fill="#1e1e1e" x="0" y="684.7" width="488" height="24.65" shape-rendering="crispEdges"/><rect fill="#1e1e1e" x="488" y="684.7" width="12.2" height="24.65" shape-rendering="crispEdges"/><rect fill="#1e1e1e" x="500.2" y="684.7" width="707.6" height="24.65" shape-rendering="crispEdges"/><rect fill="#1e1e1e" x="1207.8" y="684.7" width="12.2" height="24.65" shape-rendering="crispEdges"/><rect fill="#1e1e1e" x="1220" y="684.7" width="488" height="24.65" shape-rendering="crispEdges"/><rect fill="#1e1e1e" x="0" y="709.1" width="488" height="24.65" shape-rendering="crispEdges"/><rect fill="#1e1e1e" x="488" y="709.1" width="12.2" height="24.65" shape-rendering="crispEdges"/><rect fill="#1e1e1e" x="500.2" y="709.1" width="707.6" height="24.65" shape-rendering="crispEdges"/><rect fill="#1e1e1e" x="1207.8" y="709.1" width="12.2" height="24.65" shape-rendering="crispEdges"/><rect fill="#1e1e1e" x="1220" y="709.1" width="488" height="24.65" shape-rendering="crispEdges"/><rect fill="#1e1e1e" x="0" y="733.5" width="1708" height="24.65" shape-rendering="crispEdges"/><rect fill="#1e1e1e" x="0" y="757.9" width="1708" height="24.65" shape-rendering="crispEdges"/><rect fill="#1e1e1e" x="0" y="782.3" width="1708" height="24.65" shape-rendering="crispEdges"/><rect fill="#1e1e1e" x="0" y="806.7" width="1708" height="24.65" shape-rendering="crispEdges"/><rect fill="#1e1e1e" x="0" y="831.1" width="1708" height="24.65" shape-rendering="crispEdges"/><rect fill="#1e1e1e" x="0" y="855.5" width="1708" height="24.65" shape-rendering="crispEdges"/><rect fill="#1e1e1e" x="0" y="879.9" width="1708" height="24.65" shape-rendering="crispEdges"/><rect fill="#1e1e1e" x="0" y="904.3" width="1708" height="24.65" shape-rendering="crispEdges"/><rect fill="#1e1e1e" x="0" y="928.7" width="1708" height="24.65" shape-rendering="crispEdges"/><rect fill="#1e1e1e" x="0" y="953.1" width="1708" height="24.65" shape-rendering="crispEdges"/><rect fill="#1e1e1e" x="0" y="977.5" width="1708" height="24.65" shape-rendering="crispEdges"/><rect fill="#1e1e1e" x="0" y="1001.9" width="1708" height="24.65" shape-rendering="crispEdges"/>
    <g class="terminal-3888784750-matrix">
    <text class="terminal-3888784750-r1" x="1708" y="20" textLength="12.2" clip-path="url(#terminal-3888784750-line-0)">
</text><text class="terminal-3888784750-r1" x="1708" y="44.4" textLength="12.2" clip-path="url(#terminal-3888784750-line-1)">
</text><text class="terminal-3888784750-r1" x="1708" y="68.8" textLength="12.2" clip-path="url(#terminal-3888784750-line-2)">
</text><text class="terminal-3888784750-r1" x="1708" y="93.2" textLength="12.2" clip-path="url(#terminal-3888784750-line-3)">
</text><text class="terminal-3888784750-r2" x="488" y="117.6" textLength="12.2" clip-path="url(#terminal-3888784750-line-4)">╭</text><text class="terminal-3888784750-r2" x="500.2" y="117.6" textLength="707.6" clip-path="url(#terminal-3888784750-line-4)">──────────────────────────────────────────────────────────</text><text class="terminal-3888784750-r2" x="1207.8" y="117.6" textLength="12.2" clip-path="url(#terminal-3888784750-line-4)">╮</text><text class="terminal-3888784750-r1" x="1708" y="117.6" textLength="12.2" clip-path="url(#terminal-3888784750-line-4)">
</text><text class="terminal-3888784750-r2" x="488" y="142" textLength="12.2" clip-path="url(#terminal-3888784750-line-5)">│</text><text class="terminal-3888784750-r2" x="1207.8" y="142" textLength="12.2" clip-path="url(#terminal-3888784750-line-5)">│</text><text class="terminal-3888784750-r1" x="1708" y="142" textLength="12.2" clip-path="url(#terminal-3888784750-line-5)">
</text><text class="terminal-3888784750-r2" x="488" y="166.4" textLength="12.2" clip-path="url(#terminal-3888784750-line-6)">│</text><text class="terminal-3888784750-r3" x="524.6" y="166.4" textLength="170.8" clip-path="url(#terminal-3888784750-line-6)">Claude&#160;Cockpit</text><text class="terminal-3888784750-r4" x="695.4" y="166.4" textLength="439.2" clip-path="url(#terminal-3888784750-line-6)">&#160;—&#160;X-ray&#160;vision&#160;for&#160;your&#160;Claude&#160;Code</text><text class="terminal-3888784750-r2" x="1207.8" y="166.4" textLength="12.2" clip-path="url(#terminal-3888784750-line-6)">│</text><text class="terminal-3888784750-r1" x="1708" y="166.4" textLength="12.2" clip-path="url(#terminal-3888784750-line-6)">
</text><text class="terminal-3888784750-r2" x="488" y="190.8" textLength="12.2" clip-path="url(#terminal-3888784750-line-7)">│</text><text class="terminal-3888784750-r4" x="524.6" y="190.8" textLength="61" clip-path="url(#terminal-3888784750-line-7)">brain</text><text class="terminal-3888784750-r2" x="1207.8" y="190.8" textLength="12.2" clip-path="url(#terminal-3888784750-line-7)">│</text><text class="terminal-3888784750-r1" x="1708" y="190.8" textLength="12.2" clip-path="url(#terminal-3888784750-line-7)">
</text><text class="terminal-3888784750-r2" x="488" y="215.2" textLength="12.2" clip-path="url(#terminal-3888784750-line-8)">│</text><text class="terminal-3888784750-r2" x="1207.8" y="215.2" textLength="12.2" clip-path="url(#terminal-3888784750-line-8)">│</text><text class="terminal-3888784750-r1" x="1708" y="215.2" textLength="12.2" clip-path="url(#terminal-3888784750-line-8)">
</text><text class="terminal-3888784750-r2" x="488" y="239.6" textLength="12.2" clip-path="url(#terminal-3888784750-line-9)">│</text><text class="terminal-3888784750-r5" x="524.6" y="239.6" textLength="122" clip-path="url(#terminal-3888784750-line-9)">Navigation</text><text class="terminal-3888784750-r2" x="1207.8" y="239.6" textLength="12.2" clip-path="url(#terminal-3888784750-line-9)">│</text><text class="terminal-3888784750-r1" x="1708" y="239.6" textLength="12.2" clip-path="url(#terminal-3888784750-line-9)">
</text><text class="terminal-3888784750-r2" x="488" y="264" textLength="12.2" clip-path="url(#terminal-3888784750-line-10)">│</text><text class="terminal-3888784750-r3" x="549" y="264" textLength="12.2" clip-path="url(#terminal-3888784750-line-10)">m</text><text class="terminal-3888784750-r4" x="561.2" y="264" textLength="244" clip-path="url(#terminal-3888784750-line-10)">&#160;&#160;Memory&#160;tab&#160;&#160;&#160;&#160;&#160;&#160;&#160;&#160;</text><text class="terminal-3888784750-r3" x="805.2" y="264" textLength="12.2" clip-path="url(#terminal-3888784750-line-10)">t</text><text class="terminal-3888784750-r4" x="817.4" y="264" textLength="134.2" clip-path="url(#terminal-3888784750-line-10)">&#160;&#160;Tasks&#160;tab</text><text class="terminal-3888784750-r2" x="1207.8" y="264" textLength="12.2" clip-path="url(#terminal-3888784750-line-10)">│</text><text class="terminal-3888784750-r1" x="1708" y="264" textLength="12.2" clip-path="url(#terminal-3888784750-line-10)">
</text><text class="terminal-3888784750-r2" x="488" y="288.4" textLength="12.2" clip-path="url(#terminal-3888784750-line-11)">│</text><text class="terminal-3888784750-r3" x="549" y="288.4" textLength="12.2" clip-path="url(#terminal-3888784750-line-11)">p</text><text class="terminal-3888784750-r4" x="561.2" y="288.4" textLength="244" clip-path="url(#terminal-3888784750-line-11)">&#160;&#160;Plans&#160;tab&#160;&#160;&#160;&#160;&#160;&#160;&#160;&#160;&#160;</text><text class="terminal-3888784750-r3" x="805.2" y="288.4" textLength="12.2" clip-path="url(#terminal-3888784750-line-11)">s</text><text class="terminal-3888784750-r4" x="817.4" y="288.4" textLength="134.2" clip-path="url(#terminal-3888784750-line-11)">&#160;&#160;Stats&#160;tab</text><text class="terminal-3888784750-r2" x="1207.8" y="288.4" textLength="12.2" clip-path="url(#terminal-3888784750-line-11)">│</text><text class="terminal-3888784750-r1" x="1708" y="288.4" textLength="12.2" clip-path="url(#terminal-3888784750-line-11)">
</text><text class="terminal-3888784750-r2" x="488" y="312.8" textLength="12.2" clip-path="url(#terminal-3888784750-line-12)">│</text><text class="terminal-3888784750-r3" x="549" y="312.8" textLength="12.2" clip-path="url(#terminal-3888784750-line-12)">h</text><text class="terminal-3888784750-r4" x="561.2" y="312.8" textLength="244" clip-path="url(#terminal-3888784750-line-12)">&#160;&#160;History&#160;tab&#160;&#160;&#160;&#160;&#160;&#160;&#160;</text><text class="terminal-3888784750-r3" x="805.2" y="312.8" textLength="12.2" clip-path="url(#terminal-3888784750-line-12)">/</text><text class="terminal-3888784750-r4" x="817.4" y="312.8" textLength="170.8" clip-path="url(#terminal-3888784750-line-12)">&#160;&#160;Focus&#160;search</text><text class="terminal-3888784750-r2" x="1207.8" y="312.8" textLength="12.2" clip-path="url(#terminal-3888784750-line-12)">│</text><text class="terminal-3888784750-r1" x="1708" y="312.8" textLength="12.2" clip-path="url(#terminal-3888784750-line-12)">
</text><text class="terminal-3888784750-r2" x="488" y="337.2" textLength="12.2" clip-path="url(#terminal-3888784750-line-13)">│</text><text class="terminal-3888784750-r2" x="1207.8" y="337.2" textLength="12.2" clip-path="url(#terminal-3888784750-line-13)">│</text><text class="terminal-3888784750-r1" x="1708" y="337.2" textLength="12.2" clip-path="url(#terminal-3888784750-line-13)">
</text><text class="terminal-3888784750-r2" x="488" y="361.6" textLength="12.2" clip-path="url(#terminal-3888784750-line-14)">│</text><text class="terminal-3888784750-r5" x="524.6" y="361.6" textLength="85.4" clip-path="url(#terminal-3888784750-line-14)">Actions</text><text class="terminal-3888784750-r2" x="1207.8" y="361.6" textLength="12.2" clip-path="url(#terminal-3888784750-line-14)">│</text><text class="terminal-3888784750-r1" x="1708" y="361.6" textLength="12.2" clip-path="url(#terminal-3888784750-line-14)">
</text><text class="terminal-3888784750-r2" x="488" y="386" textLength="12.2" clip-path="url(#terminal-3888784750-line-15)">│</text><text class="terminal-3888784750-r3" x="549" y="386" textLength="12.2" clip-path="url(#terminal-3888784750-line-15)">r</text><text class="terminal-3888784750-r4" x="561.2" y="386" textLength="341.6" clip-path="url(#terminal-3888784750-line-15)">&#160;&#160;Refresh&#160;all&#160;data&#160;from&#160;disk</text><text class="terminal-3888784750-r2" x="1207.8" y="386" textLength="12.2" clip-path="url(#terminal-3888784750-line-15)">│</text><text class="terminal-3888784750-r1" x="1708" y="386" textLength="12.2" clip-path="url(#terminal-3888784750-line-15)">
</text><text class="terminal-3888784750-r2" x="488" y="410.4" textLength="12.2" clip-path="url(#terminal-3888784750-line-16)">│</text><text class="terminal-3888784750-r3" x="549" y="410.4" textLength="36.6" clip-path="url(#terminal-3888784750-line-16)">Esc</text><text class="terminal-3888784750-r4" x="585.6" y="410.4" textLength="268.4" clip-path="url(#terminal-3888784750-line-16)">&#160;&#160;Unfocus&#160;search&#160;input</text><text class="terminal-3888784750-r2" x="1207.8" y="410.4" textLength="12.2" clip-path="url(#terminal-3888784750-line-16)">│</text><text class="terminal-3888784750-r1" x="1708" y="410.4" textLength="12.2" clip-path="url(#terminal-3888784750-line-16)">
</text><text class="terminal-3888784750-r2" x="488" y="434.8" textLength="12.2" clip-path="url(#terminal-3888784750-line-17)">│</text><text class="terminal-3888784750-r3" x="549" y="434.8" textLength="12.2" clip-path="url(#terminal-3888784750-line-17)">q</text><text class="terminal-3888784750-r4" x="561.2" y="434.8" textLength="451.4" clip-path="url(#terminal-3888784750-line-17)">&#160;&#160;Quit&#160;cockpit&#160;(Claude&#160;keeps&#160;running)</text><text class="terminal-3888784750-r2" x="1207.8" y="434.8" textLength="12.2" clip-path="url(#terminal-3888784750-line-17)">│</text><text class="terminal-3888784750-r1" x="1708" y="434.8" textLength="12.2" clip-path="url(#terminal-3888784750-line-17)">
</text><text class="terminal-3888784750-r2" x="488" y="459.2" textLength="12.2" clip-path="url(#terminal-3888784750-line-18)">│</text><text class="terminal-3888784750-r3" x="549" y="459.2" textLength="12.2" clip-path="url(#terminal-3888784750-line-18)">?</text><text class="terminal-3888784750-r4" x="561.2" y="459.2" textLength="305" clip-path="url(#terminal-3888784750-line-18)">&#160;&#160;Toggle&#160;this&#160;help&#160;screen</text><text class="terminal-3888784750-r2" x="1207.8" y="459.2" textLength="12.2" clip-path="url(#terminal-3888784750-line-18)">│</text><text class="terminal-3888784750-r1" x="1708" y="459.2" textLength="12.2" clip-path="url(#terminal-3888784750-line-18)">
</text><text class="terminal-3888784750-r2" x="488" y="483.6" textLength="12.2" clip-path="url(#terminal-3888784750-line-19)">│</text><text class="terminal-3888784750-r2" x="1207.8" y="483.6" textLength="12.2" clip-path="url(#terminal-3888784750-line-19)">│</text><text class="terminal-3888784750-r1" x="1708" y="483.6" textLength="12.2" clip-path="url(#terminal-3888784750-line-19)">
</text><text class="terminal-3888784750-r2" x="488" y="508" textLength="12.2" clip-path="url(#terminal-3888784750-line-20)">│</text><text class="terminal-3888784750-r5" x="524.6" y="508" textLength="158.6" clip-path="url(#terminal-3888784750-line-20)">Memory&#160;Search</text><text class="terminal-3888784750-r2" x="1207.8" y="508" textLength="12.2" clip-path="url(#terminal-3888784750-line-20)">│</text><text class="terminal-3888784750-r1" x="1708" y="508" textLength="12.2" clip-path="url(#terminal-3888784750-line-20)">
</text><text class="terminal-3888784750-r2" x="488" y="532.4" textLength="12.2" clip-path="url(#terminal-3888784750-line-21)">│</text><text class="terminal-3888784750-r4" x="524.6" y="532.4" textLength="622.2" clip-path="url(#terminal-3888784750-line-21)">&#160;&#160;Type&#160;in&#160;the&#160;search&#160;box&#160;to&#160;instantly&#160;search&#160;across</text><text class="terminal-3888784750-r2" x="1207.8" y="532.4" textLength="12.2" clip-path="url(#terminal-3888784750-line-21)">│</text><text class="terminal-3888784750-r1" x="1708" y="532.4" textLength="12.2" clip-path="url(#terminal-3888784750-line-21)">
</text><text class="terminal-3888784750-r2" x="488" y="556.8" textLength="12.2" clip-path="url(#terminal-3888784750-line-22)">│</text><text class="terminal-3888784750-r4" x="524.6" y="556.8" textLength="622.2" clip-path="url(#terminal-3888784750-line-22)">&#160;&#160;all&#160;your&#160;Claude&#160;memory&#160;files.&#160;Results&#160;update&#160;live</text><text class="terminal-3888784750-r2" x="1207.8" y="556.8" textLength="12.2" clip-path="url(#terminal-3888784750-line-22)">│</text><text class="terminal-3888784750-r1" x="1708" y="556.8" textLength="12.2" clip-path="url(#terminal-3888784750-line-22)">
</text><text class="terminal-3888784750-r2" x="488" y="581.2" textLength="12.2" clip-path="url(#terminal-3888784750-line-23)">│</text><text class="terminal-3888784750-r4" x="524.6" y="581.2" textLength="585.6" clip-path="url(#terminal-3888784750-line-23)">&#160;&#160;with&#160;200ms&#160;debounce.&#160;Press&#160;Esc&#160;to&#160;clear&#160;focus.</text><text class="terminal-3888784750-r2" x="1207.8" y="581.2" textLength="12.2" clip-path="url(#terminal-3888784750-line-23)">│</text><text class="terminal-3888784750-r1" x="1708" y="581.2" textLength="12.2" clip-path="url(#terminal-3888784750-line-23)">
</text><text class="terminal-3888784750-r2" x="488" y="605.6" textLength="12.2" clip-path="url(#terminal-3888784750-line-24)">│</text><text class="terminal-3888784750-r2" x="1207.8" y="605.6" textLength="12.2" clip-path="url(#terminal-3888784750-line-24)">│</text><text class="terminal-3888784750-r1" x="1708" y="605.6" textLength="12.2" clip-path="url(#terminal-3888784750-line-24)">
</text><text class="terminal-3888784750-r2" x="488" y="630" textLength="12.2" clip-path="url(#terminal-3888784750-line-25)">│</text><text class="terminal-3888784750-r5" x="524.6" y="630" textLength="183" clip-path="url(#terminal-3888784750-line-25)">What&#160;this&#160;shows</text><text class="terminal-3888784750-r2" x="1207.8" y="630" textLength="12.2" clip-path="url(#terminal-3888784750-line-25)">│</text><text class="terminal-3888784750-r1" x="1708" y="630" textLength="12.2" clip-path="url(#terminal-3888784750-line-25)">
</text><text class="terminal-3888784750-r2" x="488" y="654.4" textLength="12.2" clip-path="url(#terminal-3888784750-line-26)">│</text><text class="terminal-3888784750-r3" x="549" y="654.4" textLength="73.2" clip-path="url(#terminal-3888784750-line-26)">Memory</text><text class="terminal-3888784750-r4" x="622.2" y="654.4" textLength="427" clip-path="url(#terminal-3888784750-line-26)">&#160;&#160;&#160;All&#160;memory&#160;files&#160;across&#160;projects</text><text class="terminal-3888784750-r2" x="1207.8" y="654.4" textLength="12.2" clip-path="url(#terminal-3888784750-line-26)">│</text><text class="terminal-3888784750-r1" x="1708" y="654.4" textLength="12.2" clip-path="url(#terminal-3888784750-line-26)">
</text><text class="terminal-3888784750-r2" x="488" y="678.8" textLength="12.2" clip-path="url(#terminal-3888784750-line-27)">│</text><text class="terminal-3888784750-r3" x="549" y="678.8" textLength="61" clip-path="url(#terminal-3888784750-line-27)">Tasks</text><text class="terminal-3888784750-r4" x="610" y="678.8" textLength="536.8" clip-path="url(#terminal-3888784750-line-27)">&#160;&#160;&#160;&#160;Active/pending/done&#160;from&#160;recent&#160;sessions</text><text class="terminal-3888784750-r2" x="1207.8" y="678.8" textLength="12.2" clip-path="url(#terminal-3888784750-line-27)">│</text><text class="terminal-3888784750-r1" x="1708" y="678.8" textLength="12.2" clip-path="url(#terminal-3888784750-line-27)">
</text><text class="terminal-3888784750-r2" x="488" y="703.2" textLength="12.2" clip-path="url(#terminal-3888784750-line-28)">│</text><text class="terminal-3888784750-r2" x="1207.8" y="703.2" textLength="12.2" clip-path="url(#terminal-3888784750-line-28)">│</text><text class="terminal-3888784750-r1" x="1708" y="703.2" textLength="12.2" clip-path="url(#terminal-3888784750-line-28)">
</text><text class="terminal-3888784750-r2" x="488" y="727.6" textLength="12.2" clip-path="url(#terminal-3888784750-line-29)">╰</text><text class="terminal-3888784750-r2" x="500.2" y="727.6" textLength="707.6" clip-path="url(#terminal-3888784750-line-29)">──────────────────────────────────────────────────────────</text><text class="terminal-3888784750-r2" x="1207.8" y="727.6" textLength="12.2" clip-path="url(#terminal-3888784750-line-29)">╯</text><text class="terminal-3888784750-r1" x="1708" y="727.6" textLength="12.2" clip-path="url(#terminal-3888784750-line-29)">
</text><text class="terminal-3888784750-r1" x="1708" y="752" textLength="12.2" clip-path="url(#terminal-3888784750-line-30)">
</text><text class="terminal-3888784750-r1" x="1708" y="776.4" textLength="12.2" clip-path="url(#terminal-3888784750-line-31)">
</text><text class="terminal-3888784750-r1" x="1708" y="800.8" textLength="12.2" clip-path="url(#terminal-3888784750-line-32)">
</text><text class="terminal-3888784750-r1" x="1708" y="825.2" textLength="12.2" clip-path="url(#terminal-3888784750-line-33)">
</text><text class="terminal-3888784750-r1" x="1708" y="849.6" textLength="12.2" clip-path="url(#terminal-3888784750-line-34)">
</text><text class="terminal-3888784750-r1" x="1708" y="874" textLength="12.2" clip-path="url(#terminal-3888784750-line-35)">
</text><text class="terminal-3888784750-r1" x="1708" y="898.4" textLength="12.2" clip-path="url(#terminal-3888784750-line-36)">
</text><text class="terminal-3888784750-r1" x="1708" y="922.8" textLength="12.2" clip-path="url(#terminal-3888784750-line-37)">
</text><text class="terminal-3888784750-r1" x="1708" y="947.2" textLength="12.2" clip-path="url(#terminal-3888784750-line-38)">
</text><text class="terminal-3888784750-r1" x="1708" y="971.6" textLength="12.2" clip-path="url(#terminal-3888784750-line-39)">
</text><text class="terminal-3888784750-r1" x="1708" y="996" textLength="12.2" clip-path="url(#terminal-3888784750-line-40)">
</text>
    </g>
    </g>
</svg>
