<svg class="rich-terminal" viewBox="0 0 1726 1074.8" xmlns="http://www.w3.org/2000/svg">
    <!-- Generated with Rich https://www.textualize.io -->
    <style>

    @font-face {
        font-family: "Fira Code";
        src: local("FiraCode-Regular"),
                url("https://cdnjs.cloudflare.com/ajax/libs/firacode/6.2.0/woff2/FiraCode-Regular.woff2") format("woff2"),
                url("https://cdnjs.cloudflare.com/ajax/libs/firacode/6.2.0/woff/FiraCode-Regular.woff") format("woff");
        font-style: normal;
        font-weight: 400;
    }
    @font-face {
        font-family: "Fira Code";
        src: local("FiraCode-Bold"),
                url("https://cdnjs.cloudflare.com/ajax/libs/firacode/6.2.0/woff2/FiraCode-Bold.woff2") format("woff2"),
                url("https://cdnjs.cloudflare.com/ajax/libs/firacode/6.2.0/woff/FiraCode-Bold.woff") format("woff");
        font-style: bold;
        font-weight: 700;
    }

    .terminal-3199212258-matrix {
        font-family: Fira Code, monospace;
        font-size: 20px;
        line-height: 24.4px;
        font-variant-east-asian: full-width;
    }

    .terminal-3199212258-title {
        font-size: 18px;
        font-weight: bold;
        font-family: arial;
    }

    .terminal-3199212258-r1 { fill: #c5c8c6 }
.terminal-3199212258-r2 { fill: #e0e0e0 }
.terminal-3199212258-r3 { fill: #a0a3a6 }
.terminal-3199212258-r4 { fill: #7f7f7f }
.terminal-3199212258-r5 { fill: #313131 }
.terminal-3199212258-r6 { fill: #0178d4 }
.terminal-3199212258-r7 { fill: #e0e0e0;font-weight: bold }
.terminal-3199212258-r8 { fill: #00ffff }
.terminal-3199212258-r9 { fill: #ff0000 }
.terminal-3199212258-r10 { fill: #9e9e9e }
.terminal-3199212258-r11 { fill: #ff00ff }
.terminal-3199212258-r12 { fill: #ffa62b;font-weight: bold }
.terminal-3199212258-r13 { fill: #495259 }
    </style>

    <defs>
    <clipPath id="terminal-3199212258-clip-terminal">
      <rect x="0" y="0" width="1707.0" height="1023.8" />
    </clipPath>
    <clipPath id="terminal-3199212258-line-0">
    <rect x="0" y="1.5" width="1708" height="24.65"/>
            </clipPath>
<clipPath id="terminal-3199212258-line-1">
    <rect x="0" y="25.9" width="1708" height="24.65"/>
            </clipPath>
<clipPath id="terminal-3199212258-line-2">
    <rect x="0" y="50.3" width="1708" height="24.65"/>
            </clipPath>
<clipPath id="terminal-3199212258-line-3">
    <rect x="0" y="74.7" width="1708" height="24.65"/>
            </clipPath>
<clipPath id="terminal-3199212258-line-4">
    <rect x="0" y="99.1" width="1708" height="24.65"/>
            </clipPath>
<clipPath id="terminal-3199212258-line-5">
    <rect x="0" y="123.5" width="1708" height="24.65"/>
            </clipPath>
<clipPath id="terminal-3199212258-line-6">
    <rect x="0" y="147.9" width="1708" height="24.65"/>
            </clipPath>
<clipPath id="terminal-3199212258-line-7">
    <rect x="0" y="172.3" width="1708" height="24.65"/>
            </clipPath>
<clipPath id="terminal-3199212258-line-8">
    <rect x="0" y="196.7" width="1708" height="24.65"/>
            </clipPath>
<clipPath id="terminal-3199212258-line-9">
    <rect x="0" y="221.1" width="1708" height="24.65"/>
            </clipPath>
<clipPath id="terminal-3199212258-line-10">
    <rect x="0" y="245.5" width="1708" height="24.65"/>
            </clipPath>
<clipPath id="terminal-3199212258-line-11">
    <rect x="0" y="269.9" width="1708" height="24.65"/>
            </clipPath>
<clipPath id="terminal-3199212258-line-12">
    <rect x="0" y="294.3" width="1708" height="24.65"/>
            </clipPath>
<clipPath id="terminal-3199212258-line-13">
    <rect x="0" y="318.7" width="1708" height="24.65"/>
            </clipPath>
<clipPath id="terminal-3199212258-line-14">
    <rect x="0" y="343.1" width="1708" height="24.65"/>
            </clipPath>
<clipPath id="terminal-3199212258-line-15">
    <rect x="0" y="367.5" width="1708" height="24.65"/>
            </clipPath>
<clipPath id="terminal-3199212258-line-16">
    <rect x="0" y="391.9" width="1708" height="24.65"/>
            </clipPath>
<clipPath id="terminal-3199212258-line-17">
    <rect x="0" y="416.3" width="1708" height="24.65"/>
            </clipPath>
<clipPath id="terminal-3199212258-line-18">
    <rect x="0" y="440.7" width="1708" height="24.65"/>
            </clipPath>
<clipPath id="terminal-3199212258-line-19">
    <rect x="0" y="465.1" width="1708" height="24.65"/>
            </clipPath>
<clipPath id="terminal-3199212258-line-20">
    <rect x="0" y="489.5" width="1708" height="24.65"/>
            </clipPath>
<clipPath id="terminal-3199212258-line-21">
    <rect x="0" y="513.9" width="1708" height="24.65"/>
            </clipPath>
<clipPath id="terminal-3199212258-line-22">
    <rect x="0" y="538.3" width="1708" height="24.65"/>
            </clipPath>
<clipPath id="terminal-3199212258-line-23">
    <rect x="0" y="562.7" width="1708" height="24.65"/>
            </clipPath>
<clipPath id="terminal-3199212258-line-24">
    <rect x="0" y="587.1" width="1708" height="24.65"/>
            </clipPath>
<clipPath id="terminal-3199212258-line-25">
    <rect x="0" y="611.5" width="1708" height="24.65"/>
            </clipPath>
<clipPath id="terminal-3199212258-line-26">
    <rect x="0" y="635.9" width="1708" height="24.65"/>
            </clipPath>
<clipPath id="terminal-3199212258-line-27">
    <rect x="0" y="660.3" width="1708" height="24.65"/>
            </clipPath>
<clipPath id="terminal-3199212258-line-28">
    <rect x="0" y="684.7" width="1708" height="24.65"/>
            </clipPath>
<clipPath id="terminal-3199212258-line-29">
    <rect x="0" y="709.1" width="1708" height="24.65"/>
            </clipPath>
<clipPath id="terminal-3199212258-line-30">
    <rect x="0" y="733.5" width="1708" height="24.65"/>
            </clipPath>
<clipPath id="terminal-3199212258-line-31">
    <rect x="0" y="757.9" width="1708" height="24.65"/>
            </clipPath>
<clipPath id="terminal-3199212258-line-32">
    <rect x="0" y="782.3" width="1708" height="24.65"/>
            </clipPath>
<clipPath id="terminal-3199212258-line-33">
    <rect x="0" y="806.7" width="1708" height="24.65"/>
            </clipPath>
<clipPath id="terminal-3199212258-line-34">
    <rect x="0" y="831.1" width="1708" height="24.65"/>
            </clipPath>
<clipPath id="terminal-3199212258-line-35">
    <rect x="0" y="855.5" width="1708" height="24.65"/>
            </clipPath>
<clipPath id="terminal-3199212258-line-36">
    <rect x="0" y="879.9" width="1708" height="24.65"/>
            </clipPath>
<clipPath id="terminal-3199212258-line-37">
    <rect x="0" y="904.3" width="1708" height="24.65"/>
            </clipPath>
<clipPath id="terminal-3199212258-line-38">
    <rect x="0" y="928.7" width="1708" height="24.65"/>
            </clipPath>
<clipPath id="terminal-3199212258-line-39">
    <rect x="0" y="953.1" width="1708" height="24.65"/>
            </clipPath>
<clipPath id="terminal-3199212258-line-40">
    <rect x="0" y="977.5" width="1708" height="24.65"/>
            </clipPath>
    </defs>

    <rect fill="#292929" stroke="rgba(255,255,255,0.35)" stroke-width="1" x="1" y="1" width="1724" height="1072.8" rx="8"/><text class="terminal-3199212258-title" fill="#c5c8c6" text-anchor="middle" x="862" y="27">Claude&#160;Cockpit</text>
            <g transform="translate(26,22)">
            <circle cx="0" cy="0" r="7" fill="#ff5f57"/>
            <circle cx="22" cy="0" r="7" fill="#febc2e"/>
            <circle cx="44" cy="0" r="7" fill="#28c840"/>
            </g>
        
    <g transform="translate(9, 41)" clip-path="url(#terminal-3199212258-clip-terminal)">
    <rect fill="#242f38" x="0" y="1.5" width="12.2" height="24.65" shape-rendering="crispEdges"/><rect fill="#242f38" x="12.2" y="1.5" width="12.2" height="24.65" shape-rendering="crispEdges"/><rect fill="#242f38" x="24.4" y="1.5" width="61" height="24.65" shape-rendering="crispEdges"/><rect fill="#242f38" x="85.4" y="1.5" width="12.2" height="24.65" shape-rendering="crispEdges"/><rect fill="#242f38" x="97.6" y="1.5" width="573.4" height="24.65" shape-rendering="crispEdges"/><rect fill="#242f38" x="671" y="1.5" width="170.8" height="24.65" shape-rendering="crispEdges"/><rect fill="#242f38" x="841.8" y="1.5" width="36.6" height="24.65" shape-rendering="crispEdges"/><rect fill="#242f38" x="878.4" y="1.5" width="122" height="24.65" shape-rendering="crispEdges"/><rect fill="#242f38" x="1000.4" y="1.5" width="585.6" height="24.65" shape-rendering="crispEdges"/><rect fill="#242f38" x="1586" y="1.5" width="12.2" height="24.65" shape-rendering="crispEdges"/><rect fill="#242f38" x="1598.2" y="1.5" width="0" height="24.65" shape-rendering="crispEdges"/><rect fill="#242f38" x="1598.2" y="1.5" width="97.6" height="24.65" shape-rendering="crispEdges"/><rect fill="#242f38" x="1695.8" y="1.5" width="12.2" height="24.65" shape-rendering="crispEdges"/><rect fill="#1e1e1e" x="0" y="25.9" width="12.2" height="24.65" shape-rendering="crispEdges"/><rect fill="#1e1e1e" x="12.2" y="25.9" width="73.2" height="24.65" shape-rendering="crispEdges"/><rect fill="#1e1e1e" x="85.4" y="25.9" width="12.2" height="24.65" shape-rendering="crispEdges"/><rect fill="#1e1e1e" x="97.6" y="25.9" width="12.2" height="24.65" shape-rendering="crispEdges"/><rect fill="#1e1e1e" x="109.8" y="25.9" width="61" height="24.65" shape-rendering="crispEdges"/><rect fill="#1e1e1e" x="170.8" y="25.9" width="12.2" height="24.65" shape-rendering="crispEdges"/><rect fill="#1e1e1e" x="183" y="25.9" width="12.2" height="24.65" shape-rendering="crispEdges"/><rect fill="#1e1e1e" x="195.2" y="25.9" width="61" height="24.65" shape-rendering="crispEdges"/><rect fill="#1e1e1e" x="256.2" y="25.9" width="12.2" height="24.65" shape-rendering="crispEdges"/><rect fill="#1e1e1e" x="268.4" y="25.9" width="12.2" height="24.65" shape-rendering="crispEdges"/><rect fill="#1e1e1e" x="280.6" y="25.9" width="61" height="24.65" shape-rendering="crispEdges"/><rect fill="#1e1e1e" x="341.6" y="25.9" width="12.2" height="24.65" shape-rendering="crispEdges"/><rect fill="#1e1e1e" x="353.8" y="25.9" width="12.2" height="24.65" shape-rendering="crispEdges"/><rect fill="#1e1e1e" x="366" y="25.9" width="85.4" height="24.65" shape-rendering="crispEdges"/><rect fill="#1e1e1e" x="451.4" y="25.9" width="12.2" height="24.65" shape-rendering="crispEdges"/><rect fill="#1e1e1e" x="463.6" y="25.9" width="1244.4" height="24.65" shape-rendering="crispEdges"/><rect fill="#1e1e1e" x="0" y="50.3" width="268.4" height="24.65" shape-rendering="crispEdges"/><rect fill="#1e1e1e" x="268.4" y="50.3" width="12.2" height="24.65" shape-rendering="crispEdges"/><rect fill="#1e1e1e" x="280.6" y="50.3" width="61" height="24.65" shape-rendering="crispEdges"/><rect fill="#1e1e1e" x="341.6" y="50.3" width="12.2" height="24.65" shape-rendering="crispEdges"/><rect fill="#1e1e1e" x="353.8" y="50.3" width="1354.2" height="24.65" shape-rendering="crispEdges"/><rect fill="#1e1e1e" x="0" y="74.7" width="1708" height="24.65" shape-rendering="crispEdges"/><rect fill="#1e1e1e" x="0" y="99.1" width="24.4" height="24.65" shape-rendering="crispEdges"/><rect fill="#1e1e1e" x="24.4" y="99.1" width="170.8" height="24.65" shape-rendering="crispEdges"/><rect fill="#1e1e1e" x="195.2" y="99.1" width="1488.4" height="24.65" shape-rendering="crispEdges"/><rect fill="#1e1e1e" x="1683.6" y="99.1" width="24.4" height="24.65" shape-rendering="crispEdges"/><rect fill="#1e1e1e" x="0" y="123.5" width="24.4" height="24.65" shape-rendering="crispEdges"/><rect fill="#1e1e1e" x="24.4" y="123.5" width="0" height="24.65" shape-rendering="crispEdges"/><rect fill="#1e1e1e" x="24.4" y="123.5" width="1659.2" height="24.65" shape-rendering="crispEdges"/><rect fill="#1e1e1e" x="1683.6" y="123.5" width="24.4" height="24.65" shape-rendering="crispEdges"/><rect fill="#1e1e1e" x="0" y="147.9" width="24.4" height="24.65" shape-rendering="crispEdges"/><rect fill="#1e1e1e" x="24.4" y="147.9" width="24.4" height="24.65" shape-rendering="crispEdges"/><rect fill="#1e1e1e" x="48.8" y="147.9" width="61" height="24.65" shape-rendering="crispEdges"/><rect fill="#1e1e1e" x="109.8" y="147.9" width="170.8" height="24.65" shape-rendering="crispEdges"/><rect fill="#1e1e1e" x="280.6" y="147.9" width="61" height="24.65" shape-rendering="crispEdges"/><rect fill="#1e1e1e" x="341.6" y="147.9" width="195.2" height="24.65" shape-rendering="crispEdges"/><rect fill="#1e1e1e" x="536.8" y="147.9" width="36.6" height="24.65" shape-rendering="crispEdges"/><rect fill="#1e1e1e" x="573.4" y="147.9" width="170.8" height="24.65" shape-rendering="crispEdges"/><rect fill="#1e1e1e" x="744.2" y="147.9" width="24.4" height="24.65" shape-rendering="crispEdges"/><rect fill="#1e1e1e" x="768.6" y="147.9" width="158.6" height="24.65" shape-rendering="crispEdges"/><rect fill="#1e1e1e" x="927.2" y="147.9" width="756.4" height="24.65" shape-rendering="crispEdges"/><rect fill="#1e1e1e" x="1683.6" y="147.9" width="24.4" height="24.65" shape-rendering="crispEdges"/><rect fill="#1e1e1e" x="0" y="172.3" width="24.4" height="24.65" shape-rendering="crispEdges"/><rect fill="#1e1e1e" x="24.4" y="172.3" width="85.4" height="24.65" shape-rendering="crispEdges"/><rect fill="#1e1e1e" x="109.8" y="172.3" width="48.8" height="24.65" shape-rendering="crispEdges"/><rect fill="#1e1e1e" x="158.6" y="172.3" width="475.8" height="24.65" shape-rendering="crispEdges"/><rect fill="#1e1e1e" x="634.4" y="172.3" width="1049.2" height="24.65" shape-rendering="crispEdges"/><rect fill="#1e1e1e" x="1683.6" y="172.3" width="24.4" height="24.65" shape-rendering="crispEdges"/><rect fill="#1e1e1e" x="0" y="196.7" width="24.4" height="24.65" shape-rendering="crispEdges"/><rect fill="#1e1e1e" x="24.4" y="196.7" width="0" height="24.65" shape-rendering="crispEdges"/><rect fill="#1e1e1e" x="24.4" y="196.7" width="1659.2" height="24.65" shape-rendering="crispEdges"/><rect fill="#1e1e1e" x="1683.6" y="196.7" width="24.4" height="24.65" shape-rendering="crispEdges"/><rect fill="#1e1e1e" x="0" y="221.1" width="24.4" height="24.65" shape-rendering="crispEdges"/><rect fill="#1e1e1e" x="24.4" y="221.1" width="134.2" height="24.65" shape-rendering="crispEdges"/><rect fill="#1e1e1e" x="158.6" y="221.1" width="1525" height="24.65" shape-rendering="crispEdges"/><rect fill="#1e1e1e" x="1683.6" y="221.1" width="24.4" height="24.65" shape-rendering="crispEdges"/><rect fill="#1e1e1e" x="0" y="245.5" width="24.4" height="24.65" shape-rendering="crispEdges"/><rect fill="#1e1e1e" x="24.4" y="245.5" width="24.4" height="24.65" shape-rendering="crispEdges"/><rect fill="#1e1e1e" x="48.8" y="245.5" width="97.6" height="24.65" shape-rendering="crispEdges"/><rect fill="#1e1e1e" x="146.4" y="245.5" width="622.2" height="24.65" shape-rendering="crispEdges"/><rect fill="#1e1e1e" x="768.6" y="245.5" width="915" height="24.65" shape-rendering="crispEdges"/><rect fill="#1e1e1e" x="1683.6" y="245.5" width="24.4" height="24.65" shape-rendering="crispEdges"/><rect fill="#1e1e1e" x="0" y="269.9" width="24.4" height="24.65" shape-rendering="crispEdges"/><rect fill="#1e1e1e" x="24.4" y="269.9" width="24.4" height="24.65" shape-rendering="crispEdges"/><rect fill="#1e1e1e" x="48.8" y="269.9" width="122" height="24.65" shape-rendering="crispEdges"/><rect fill="#1e1e1e" x="170.8" y="269.9" width="561.2" height="24.65" shape-rendering="crispEdges"/><rect fill="#1e1e1e" x="732" y="269.9" width="951.6" height="24.65" shape-rendering="crispEdges"/><rect fill="#1e1e1e" x="1683.6" y="269.9" width="24.4" height="24.65" shape-rendering="crispEdges"/><rect fill="#1e1e1e" x="0" y="294.3" width="24.4" height="24.65" shape-rendering="crispEdges"/><rect fill="#1e1e1e" x="24.4" y="294.3" width="24.4" height="24.65" shape-rendering="crispEdges"/><rect fill="#1e1e1e" x="48.8" y="294.3" width="97.6" height="24.65" shape-rendering="crispEdges"/><rect fill="#1e1e1e" x="146.4" y="294.3" width="646.6" height="24.65" shape-rendering="crispEdges"/><rect fill="#1e1e1e" x="793" y="294.3" width="890.6" height="24.65" shape-rendering="crispEdges"/><rect fill="#1e1e1e" x="1683.6" y="294.3" width="24.4" height="24.65" shape-rendering="crispEdges"/><rect fill="#1e1e1e" x="0" y="318.7" width="24.4" height="24.65" shape-rendering="crispEdges"/><rect fill="#1e1e1e" x="24.4" y="318.7" width="0" height="24.65" shape-rendering="crispEdges"/><rect fill="#1e1e1e" x="24.4" y="318.7" width="1659.2" height="24.65" shape-rendering="crispEdges"/><rect fill="#1e1e1e" x="1683.6" y="318.7" width="24.4" height="24.65" shape-rendering="crispEdges"/><rect fill="#1e1e1e" x="0" y="343.1" width="24.4" height="24.65" shape-rendering="crispEdges"/><rect fill="#1e1e1e" x="24.4" y="343.1" width="24.4" height="24.65" shape-rendering="crispEdges"/><rect fill="#1e1e1e" x="48.8" y="343.1" width="170.8" height="24.65" shape-rendering="crispEdges"/><rect fill="#1e1e1e" x="219.6" y="343.1" width="24.4" height="24.65" shape-rendering="crispEdges"/><rect fill="#1e1e1e" x="244" y="343.1" width="244" height="24.65" shape-rendering="crispEdges"/><rect fill="#1e1e1e" x="488" y="343.1" width="451.4" height="24.65" shape-rendering="crispEdges"/><rect fill="#1e1e1e" x="939.4" y="343.1" width="744.2" height="24.65" shape-rendering="crispEdges"/><rect fill="#1e1e1e" x="1683.6" y="343.1" width="24.4" height="24.65" shape-rendering="crispEdges"/><rect fill="#1e1e1e" x="0" y="367.5" width="24.4" height="24.65" shape-rendering="crispEdges"/><rect fill="#1e1e1e" x="24.4" y="367.5" width="0" height="24.65" shape-rendering="crispEdges"/><rect fill="#1e1e1e" x="24.4" y="367.5" width="1659.2" height="24.65" shape-rendering="crispEdges"/><rect fill="#1e1e1e" x="1683.6" y="367.5" width="24.4" height="24.65" shape-rendering="crispEdges"/><rect fill="#1e1e1e" x="0" y="391.9" width="24.4" height="24.65" shape-rendering="crispEdges"/><rect fill="#1e1e1e" x="24.4" y="391.9" width="24.4" height="24.65" shape-rendering="crispEdges"/><rect fill="#1e1e1e" x="48.8" y="391.9" width="231.8" height="24.65" shape-rendering="crispEdges"/><rect fill="#1e1e1e" x="280.6" y="391.9" width="1403" height="24.65" shape-rendering="crispEdges"/><rect fill="#1e1e1e" x="1683.6" y="391.9" width="24.4" height="24.65" shape-rendering="crispEdges"/><rect fill="#1e1e1e" x="0" y="416.3" width="24.4" height="24.65" shape-rendering="crispEdges"/><rect fill="#1e1e1e" x="24.4" y="416.3" width="24.4" height="24.65" shape-rendering="crispEdges"/><rect fill="#1e1e1e" x="48.8" y="416.3" width="366" height="24.65" shape-rendering="crispEdges"/><rect fill="#1e1e1e" x="414.8" y="416.3" width="1268.8" height="24.65" shape-rendering="crispEdges"/><rect fill="#1e1e1e" x="1683.6" y="416.3" width="24.4" height="24.65" shape-rendering="crispEdges"/><rect fill="#1e1e1e" x="0" y="440.7" width="24.4" height="24.65" shape-rendering="crispEdges"/><rect fill="#1e1e1e" x="24.4" y="440.7" width="24.4" height="24.65" shape-rendering="crispEdges"/><rect fill="#1e1e1e" x="48.8" y="440.7" width="536.8" height="24.65" shape-rendering="crispEdges"/><rect fill="#1e1e1e" x="585.6" y="440.7" width="1098" height="24.65" shape-rendering="crispEdges"/><rect fill="#1e1e1e" x="1683.6" y="440.7" width="24.4" height="24.65" shape-rendering="crispEdges"/><rect fill="#1e1e1e" x="0" y="465.1" width="24.4" height="24.65" shape-rendering="crispEdges"/><rect fill="#1e1e1e" x="24.4" y="465.1" width="0" height="24.65" shape-rendering="crispEdges"/><rect fill="#1e1e1e" x="24.4" y="465.1" width="1659.2" height="24.65" shape-rendering="crispEdges"/><rect fill="#1e1e1e" x="1683.6" y="465.1" width="24.4" height="24.65" shape-rendering="crispEdges"/><rect fill="#1e1e1e" x="0" y="489.5" width="24.4" height="24.65" shape-rendering="crispEdges"/><rect fill="#1e1e1e" x="24.4" y="489.5" width="24.4" height="24.65" shape-rendering="crispEdges"/><rect fill="#1e1e1e" x="48.8" y="489.5" width="256.2" height="24.65" shape-rendering="crispEdges"/><rect fill="#1e1e1e" x="305" y="489.5" width="1378.6" height="24.65" shape-rendering="crispEdges"/><rect fill="#1e1e1e" x="1683.6" y="489.5" width="24.4" height="24.65" shape-rendering="crispEdges"/><rect fill="#1e1e1e" x="0" y="513.9" width="24.4" height="24.65" shape-rendering="crispEdges"/><rect fill="#1e1e1e" x="24.4" y="513.9" width="24.4" height="24.65" shape-rendering="crispEdges"/><rect fill="#1e1e1e" x="48.8" y="513.9" width="366" height="24.65" shape-rendering="crispEdges"/><rect fill="#1e1e1e" x="414.8" y="513.9" width="1268.8" height="24.65" shape-rendering="crispEdges"/><rect fill="#1e1e1e" x="1683.6" y="513.9" width="24.4" height="24.65" shape-rendering="crispEdges"/><rect fill="#1e1e1e" x="0" y="538.3" width="24.4" height="24.65" shape-rendering="crispEdges"/><rect fill="#1e1e1e" x="24.4" y="538.3" width="0" height="24.65" shape-rendering="crispEdges"/><rect fill="#1e1e1e" x="24.4" y="538.3" width="1659.2" height="24.65" shape-rendering="crispEdges"/><rect fill="#1e1e1e" x="1683.6" y="538.3" width="24.4" height="24.65" shape-rendering="crispEdges"/><rect fill="#1e1e1e" x="0" y="562.7" width="24.4" height="24.65" shape-rendering="crispEdges"/><rect fill="#1e1e1e" x="24.4" y="562.7" width="24.4" height="24.65" shape-rendering="crispEdges"/><rect fill="#1e1e1e" x="48.8" y="562.7" width="268.4" height="24.65" shape-rendering="crispEdges"/><rect fill="#1e1e1e" x="317.2" y="562.7" width="1366.4" height="24.65" shape-rendering="crispEdges"/><rect fill="#1e1e1e" x="1683.6" y="562.7" width="24.4" height="24.65" shape-rendering="crispEdges"/><rect fill="#1e1e1e" x="0" y="587.1" width="24.4" height="24.65" shape-rendering="crispEdges"/><rect fill="#1e1e1e" x="24.4" y="587.1" width="170.8" height="24.65" shape-rendering="crispEdges"/><rect fill="#1e1e1e" x="195.2" y="587.1" width="305" height="24.65" shape-rendering="crispEdges"/><rect fill="#1e1e1e" x="500.2" y="587.1" width="390.4" height="24.65" shape-rendering="crispEdges"/><rect fill="#1e1e1e" x="890.6" y="587.1" width="793" height="24.65" shape-rendering="crispEdges"/><rect fill="#1e1e1e" x="1683.6" y="587.1" width="24.4" height="24.65" shape-rendering="crispEdges"/><rect fill="#1e1e1e" x="0" y="611.5" width="24.4" height="24.65" shape-rendering="crispEdges"/><rect fill="#1e1e1e" x="24.4" y="611.5" width="170.8" height="24.65" shape-rendering="crispEdges"/><rect fill="#1e1e1e" x="195.2" y="611.5" width="134.2" height="24.65" shape-rendering="crispEdges"/><rect fill="#1e1e1e" x="329.4" y="611.5" width="353.8" height="24.65" shape-rendering="crispEdges"/><rect fill="#1e1e1e" x="683.2" y="611.5" width="1000.4" height="24.65" shape-rendering="crispEdges"/><rect fill="#1e1e1e" x="1683.6" y="611.5" width="24.4" height="24.65" shape-rendering="crispEdges"/><rect fill="#1e1e1e" x="0" y="635.9" width="24.4" height="24.65" shape-rendering="crispEdges"/><rect fill="#1e1e1e" x="24.4" y="635.9" width="170.8" height="24.65" shape-rendering="crispEdges"/><rect fill="#1e1e1e" x="195.2" y="635.9" width="134.2" height="24.65" shape-rendering="crispEdges"/><rect fill="#1e1e1e" x="329.4" y="635.9" width="353.8" height="24.65" shape-rendering="crispEdges"/><rect fill="#1e1e1e" x="683.2" y="635.9" width="1000.4" height="24.65" shape-rendering="crispEdges"/><rect fill="#1e1e1e" x="1683.6" y="635.9" width="24.4" height="24.65" shape-rendering="crispEdges"/><rect fill="#1e1e1e" x="0" y="660.3" width="24.4" height="24.65" shape-rendering="crispEdges"/><rect fill="#1e1e1e" x="24.4" y="660.3" width="170.8" height="24.65" shape-rendering="crispEdges"/><rect fill="#1e1e1e" x="195.2" y="660.3" width="122" height="24.65" shape-rendering="crispEdges"/><rect fill="#1e1e1e" x="317.2" y="660.3" width="353.8" height="24.65" shape-rendering="crispEdges"/><rect fill="#1e1e1e" x="671" y="660.3" width="1012.6" height="24.65" shape-rendering="crispEdges"/><rect fill="#1e1e1e" x="1683.6" y="660.3" width="24.4" height="24.65" shape-rendering="crispEdges"/><rect fill="#1e1e1e" x="0" y="684.7" width="24.4" height="24.65" shape-rendering="crispEdges"/><rect fill="#1e1e1e" x="24.4" y="684.7" width="170.8" height="24.65" shape-rendering="crispEdges"/><rect fill="#1e1e1e" x="195.2" y="684.7" width="97.6" height="24.65" shape-rendering="crispEdges"/><rect fill="#1e1e1e" x="292.8" y="684.7" width="353.8" height="24.65" shape-rendering="crispEdges"/><rect fill="#1e1e1e" x="646.6" y="684.7" width="1037" height="24.65" shape-rendering="crispEdges"/><rect fill="#1e1e1e" x="1683.6" y="684.7" width="24.4" height="24.65" shape-rendering="crispEdges"/><rect fill="#1e1e1e" x="0" y="709.1" width="24.4" height="24.65" shape-rendering="crispEdges"/><rect fill="#1e1e1e" x="24.4" y="709.1" width="0" height="24.65" shape-rendering="crispEdges"/><rect fill="#1e1e1e" x="24.4" y="709.1" width="1659.2" height="24.65" shape-rendering="crispEdges"/><rect fill="#1e1e1e" x="1683.6" y="709.1" width="24.4" height="24.65" shape-rendering="crispEdges"/><rect fill="#1e1e1e" x="0" y="733.5" width="24.4" height="24.65" shape-rendering="crispEdges"/><rect fill="#1e1e1e" x="24.4" y="733.5" width="24.4" height="24.65" shape-rendering="crispEdges"/><rect fill="#1e1e1e" x="48.8" y="733.5" width="183" height="24.65" shape-rendering="crispEdges"/><rect fill="#1e1e1e" x="231.8" y="733.5" width="439.2" height="24.65" shape-rendering="crispEdges"/><rect fill="#1e1e1e" x="671" y="733.5" width="1012.6" height="24.65" shape-rendering="crispEdges"/><rect fill="#1e1e1e" x="1683.6" y="733.5" width="24.4" height="24.65" shape-rendering="crispEdges"/><rect fill="#1e1e1e" x="0" y="757.9" width="24.4" height="24.65" shape-rendering="crispEdges"/><rect fill="#1e1e1e" x="24.4" y="757.9" width="1659.2" height="24.65" shape-rendering="crispEdges"/><rect fill="#1e1e1e" x="1683.6" y="757.9" width="24.4" height="24.65" shape-rendering="crispEdges"/><rect fill="#1e1e1e" x="0" y="782.3" width="24.4" height="24.65" shape-rendering="crispEdges"/><rect fill="#1e1e1e" x="24.4" y="782.3" width="1659.2" height="24.65" shape-rendering="crispEdges"/><rect fill="#1e1e1e" x="1683.6" y="782.3" width="24.4" height="24.65" shape-rendering="crispEdges"/><rect fill="#1e1e1e" x="0" y="806.7" width="24.4" height="24.65" shape-rendering="crispEdges"/><rect fill="#1e1e1e" x="24.4" y="806.7" width="1659.2" height="24.65" shape-rendering="crispEdges"/><rect fill="#1e1e1e" x="1683.6" y="806.7" width="24.4" height="24.65" shape-rendering="crispEdges"/><rect fill="#1e1e1e" x="0" y="831.1" width="24.4" height="24.65" shape-rendering="crispEdges"/><rect fill="#1e1e1e" x="24.4" y="831.1" width="1659.2" height="24.65" shape-rendering="crispEdges"/><rect fill="#1e1e1e" x="1683.6" y="831.1" width="24.4" height="24.65" shape-rendering="crispEdges"/><rect fill="#1e1e1e" x="0" y="855.5" width="24.4" height="24.65" shape-rendering="crispEdges"/><rect fill="#1e1e1e" x="24.4" y="855.5" width="1659.2" height="24.65" shape-rendering="crispEdges"/><rect fill="#1e1e1e" x="1683.6" y="855.5" width="24.4" height="24.65" shape-rendering="crispEdges"/><rect fill="#1e1e1e" x="0" y="879.9" width="24.4" height="24.65" shape-rendering="crispEdges"/><rect fill="#1e1e1e" x="24.4" y="879.9" width="1659.2" height="24.65" shape-rendering="crispEdges"/><rect fill="#1e1e1e" x="1683.6" y="879.9" width="24.4" height="24.65" shape-rendering="crispEdges"/><rect fill="#1e1e1e" x="0" y="904.3" width="24.4" height="24.65" shape-rendering="crispEdges"/><rect fill="#1e1e1e" x="24.4" y="904.3" width="1659.2" height="24.65" shape-rendering="crispEdges"/><rect fill="#1e1e1e" x="1683.6" y="904.3" width="24.4" height="24.65" shape-rendering="crispEdges"/><rect fill="#1e1e1e" x="0" y="928.7" width="24.4" height="24.65" shape-rendering="crispEdges"/><rect fill="#1e1e1e" x="24.4" y="928.7" width="1659.2" height="24.65" shape-rendering="crispEdges"/><rect fill="#1e1e1e" x="1683.6" y="928.7" width="24.4" height="24.65" shape-rendering="crispEdges"/><rect fill="#1e1e1e" x="0" y="953.1" width="24.4" height="24.65" shape-rendering="crispEdges"/><rect fill="#1e1e1e" x="24.4" y="953.1" width="1659.2" height="24.65" shape-rendering="crispEdges"/><rect fill="#1e1e1e" x="1683.6" y="953.1" width="24.4" height="24.65" shape-rendering="crispEdges"/><rect fill="#1e1e1e" x="0" y="977.5" width="1708" height="24.65" shape-rendering="crispEdges"/><rect fill="#242f38" x="0" y="1001.9" width="36.6" height="24.65" shape-rendering="crispEdges"/><rect fill="#242f38" x="36.6" y="1001.9" width="61" height="24.65" shape-rendering="crispEdges"/><rect fill="#242f38" x="97.6" y="1001.9" width="36.6" height="24.65" shape-rendering="crispEdges"/><rect fill="#242f38" x="134.2" y="1001.9" width="85.4" height="24.65" shape-rendering="crispEdges"/><rect fill="#242f38" x="219.6" y="1001.9" width="36.6" height="24.65" shape-rendering="crispEdges"/><rect fill="#242f38" x="256.2" y="1001.9" width="61" height="24.65" shape-rendering="crispEdges"/><rect fill="#242f38" x="317.2" y="1001.9" width="36.6" height="24.65" shape-rendering="crispEdges"/><rect fill="#242f38" x="353.8" y="1001.9" width="85.4" height="24.65" shape-rendering="crispEdges"/><rect fill="#242f38" x="439.2" y="1001.9" width="36.6" height="24.65" shape-rendering="crispEdges"/><rect fill="#242f38" x="475.8" y="1001.9" width="73.2" height="24.65" shape-rendering="crispEdges"/><rect fill="#242f38" x="549" y="1001.9" width="36.6" height="24.65" shape-rendering="crispEdges"/><rect fill="#242f38" x="585.6" y="1001.9" width="73.2" height="24.65" shape-rendering="crispEdges"/><rect fill="#242f38" x="658.8" y="1001.9" width="36.6" height="24.65" shape-rendering="crispEdges"/><rect fill="#242f38" x="695.4" y="1001.9" width="73.2" height="24.65" shape-rendering="crispEdges"/><rect fill="#242f38" x="768.6" y="1001.9" width="36.6" height="24.65" shape-rendering="crispEdges"/><rect fill="#242f38" x="805.2" y="1001.9" width="97.6" height="24.65" shape-rendering="crispEdges"/><rect fill="#242f38" x="902.8" y="1001.9" width="36.6" height="24.65" shape-rendering="crispEdges"/><rect fill="#242f38" x="939.4" y="1001.9" width="97.6" height="24.65" shape-rendering="crispEdges"/><rect fill="#242f38" x="1037" y="1001.9" width="524.6" height="24.65" shape-rendering="crispEdges"/><rect fill="#242f38" x="1561.6" y="1001.9" width="12.2" height="24.65" shape-rendering="crispEdges"/><rect fill="#242f38" x="1573.8" y="1001.9" width="24.4" height="24.65" shape-rendering="crispEdges"/><rect fill="#242f38" x="1598.2" y="1001.9" width="97.6" height="24.65" shape-rendering="crispEdges"/><rect fill="#242f38" x="1695.8" y="1001.9" width="12.2" height="24.65" shape-rendering="crispEdges"/>
    <g class="terminal-3199212258-matrix">
    <text class="terminal-3199212258-r2" x="12.2" y="20" textLength="12.2" clip-path="url(#terminal-3199212258-line-0)">⭘</text><text class="terminal-3199212258-r2" x="671" y="20" textLength="170.8" clip-path="url(#terminal-3199212258-line-0)">Claude&#160;Cockpit</text><text class="terminal-3199212258-r3" x="841.8" y="20" textLength="36.6" clip-path="url(#terminal-3199212258-line-0)">&#160;—&#160;</text><text class="terminal-3199212258-r3" x="878.4" y="20" textLength="122" clip-path="url(#terminal-3199212258-line-0)">~/.claude/</text><text class="terminal-3199212258-r1" x="1708" y="20" textLength="12.2" clip-path="url(#terminal-3199212258-line-0)">
</text><text class="terminal-3199212258-r4" x="12.2" y="44.4" textLength="73.2" clip-path="url(#terminal-3199212258-line-1)">Memory</text><text class="terminal-3199212258-r4" x="109.8" y="44.4" textLength="61" clip-path="url(#terminal-3199212258-line-1)">Tasks</text><text class="terminal-3199212258-r4" x="195.2" y="44.4" textLength="61" clip-path="url(#terminal-3199212258-line-1)">Plans</text><text class="terminal-3199212258-r2" x="280.6" y="44.4" textLength="61" clip-path="url(#terminal-3199212258-line-1)">Stats</text><text class="terminal-3199212258-r4" x="366" y="44.4" textLength="85.4" clip-path="url(#terminal-3199212258-line-1)">History</text><text class="terminal-3199212258-r1" x="1708" y="44.4" textLength="12.2" clip-path="url(#terminal-3199212258-line-1)">
</text><text class="terminal-3199212258-r5" x="0" y="68.8" textLength="268.4" clip-path="url(#terminal-3199212258-line-2)">━━━━━━━━━━━━━━━━━━━━━━</text><text class="terminal-3199212258-r5" x="268.4" y="68.8" textLength="12.2" clip-path="url(#terminal-3199212258-line-2)">╸</text><text class="terminal-3199212258-r6" x="280.6" y="68.8" textLength="61" clip-path="url(#terminal-3199212258-line-2)">━━━━━</text><text class="terminal-3199212258-r5" x="341.6" y="68.8" textLength="12.2" clip-path="url(#terminal-3199212258-line-2)">╺</text><text class="terminal-3199212258-r5" x="353.8" y="68.8" textLength="1354.2" clip-path="url(#terminal-3199212258-line-2)">━━━━━━━━━━━━━━━━━━━━━━━━━━━━━━━━━━━━━━━━━━━━━━━━━━━━━━━━━━━━━━━━━━━━━━━━━━━━━━━━━━━━━━━━━━━━━━━━━━━━━━━━━━━━━━━</text><text class="terminal-3199212258-r1" x="1708" y="68.8" textLength="12.2" clip-path="url(#terminal-3199212258-line-2)">
</text><text class="terminal-3199212258-r1" x="1708" y="93.2" textLength="12.2" clip-path="url(#terminal-3199212258-line-3)">
</text><text class="terminal-3199212258-r7" x="24.4" y="117.6" textLength="170.8" clip-path="url(#terminal-3199212258-line-4)">Usage&#160;Overview</text><text class="terminal-3199212258-r1" x="1708" y="117.6" textLength="12.2" clip-path="url(#terminal-3199212258-line-4)">
</text><text class="terminal-3199212258-r1" x="1708" y="142" textLength="12.2" clip-path="url(#terminal-3199212258-line-5)">
</text><text class="terminal-3199212258-r7" x="48.8" y="166.4" textLength="61" clip-path="url(#terminal-3199212258-line-6)">90.5K</text><text class="terminal-3199212258-r2" x="109.8" y="166.4" textLength="170.8" clip-path="url(#terminal-3199212258-line-6)">&#160;messages&#160;&#160;|&#160;&#160;</text><text class="terminal-3199212258-r7" x="280.6" y="166.4" textLength="61" clip-path="url(#terminal-3199212258-line-6)">14.7K</text><text class="terminal-3199212258-r2" x="341.6" y="166.4" textLength="195.2" clip-path="url(#terminal-3199212258-line-6)">&#160;tool&#160;calls&#160;&#160;|&#160;&#160;</text><text class="terminal-3199212258-r7" x="536.8" y="166.4" textLength="36.6" clip-path="url(#terminal-3199212258-line-6)">201</text><text class="terminal-3199212258-r2" x="573.4" y="166.4" textLength="170.8" clip-path="url(#terminal-3199212258-line-6)">&#160;sessions&#160;&#160;|&#160;&#160;</text><text class="terminal-3199212258-r7" x="744.2" y="166.4" textLength="24.4" clip-path="url(#terminal-3199212258-line-6)">45</text><text class="terminal-3199212258-r2" x="768.6" y="166.4" textLength="158.6" clip-path="url(#terminal-3199212258-line-6)">&#160;days&#160;tracked</text><text class="terminal-3199212258-r1" x="1708" y="166.4" textLength="12.2" clip-path="url(#terminal-3199212258-line-6)">
</text><text class="terminal-3199212258-r2" x="24.4" y="190.8" textLength="85.4" clip-path="url(#terminal-3199212258-line-7)">&#160;&#160;Avg:&#160;</text><text class="terminal-3199212258-r7" x="109.8" y="190.8" textLength="48.8" clip-path="url(#terminal-3199212258-line-7)">2.0K</text><text class="terminal-3199212258-r2" x="158.6" y="190.8" textLength="475.8" clip-path="url(#terminal-3199212258-line-7)">&#160;msgs/day&#160;&#160;|&#160;&#160;First&#160;session:&#160;2026-01-14</text><text class="terminal-3199212258-r1" x="1708" y="190.8" textLength="12.2" clip-path="url(#terminal-3199212258-line-7)">
</text><text class="terminal-3199212258-r1" x="1708" y="215.2" textLength="12.2" clip-path="url(#terminal-3199212258-line-8)">
</text><text class="terminal-3199212258-r7" x="24.4" y="239.6" textLength="134.2" clip-path="url(#terminal-3199212258-line-9)">Model&#160;Usage</text><text class="terminal-3199212258-r1" x="1708" y="239.6" textLength="12.2" clip-path="url(#terminal-3199212258-line-9)">
</text><text class="terminal-3199212258-r8" x="48.8" y="264" textLength="97.6" clip-path="url(#terminal-3199212258-line-10)">opus-4-5</text><text class="terminal-3199212258-r2" x="146.4" y="264" textLength="622.2" clip-path="url(#terminal-3199212258-line-10)">&#160;&#160;in:375.9K&#160;&#160;out:365.4K&#160;&#160;cache:776.4M&#160;&#160;total:818.1M</text><text class="terminal-3199212258-r1" x="1708" y="264" textLength="12.2" clip-path="url(#terminal-3199212258-line-10)">
</text><text class="terminal-3199212258-r8" x="48.8" y="288.4" textLength="122" clip-path="url(#terminal-3199212258-line-11)">sonnet-4-5</text><text class="terminal-3199212258-r2" x="170.8" y="288.4" textLength="561.2" clip-path="url(#terminal-3199212258-line-11)">&#160;&#160;in:6.6K&#160;&#160;out:93.7K&#160;&#160;cache:24.7M&#160;&#160;total:25.8M</text><text class="terminal-3199212258-r1" x="1708" y="288.4" textLength="12.2" clip-path="url(#terminal-3199212258-line-11)">
</text><text class="terminal-3199212258-r8" x="48.8" y="312.8" textLength="97.6" clip-path="url(#terminal-3199212258-line-12)">opus-4-6</text><text class="terminal-3199212258-r2" x="146.4" y="312.8" textLength="646.6" clip-path="url(#terminal-3199212258-line-12)">&#160;&#160;in:450.1K&#160;&#160;out:854.5K&#160;&#160;cache:1585.4M&#160;&#160;total:1666.3M</text><text class="terminal-3199212258-r1" x="1708" y="312.8" textLength="12.2" clip-path="url(#terminal-3199212258-line-12)">
</text><text class="terminal-3199212258-r1" x="1708" y="337.2" textLength="12.2" clip-path="url(#terminal-3199212258-line-13)">
</text><text class="terminal-3199212258-r7" x="48.8" y="361.6" textLength="170.8" clip-path="url(#terminal-3199212258-line-14)">Active&#160;Session</text><text class="terminal-3199212258-r9" x="244" y="361.6" textLength="244" clip-path="url(#terminal-3199212258-line-14)">████████████████████</text><text class="terminal-3199212258-r2" x="488" y="361.6" textLength="451.4" clip-path="url(#terminal-3199212258-line-14)">&#160;100%&#160;&#160;~256.9K&#160;tokens&#160;&#160;~$8.48&#160;&#160;0m&#160;ago</text><text class="terminal-3199212258-r1" x="1708" y="361.6" textLength="12.2" clip-path="url(#terminal-3199212258-line-14)">
</text><text class="terminal-3199212258-r1" x="1708" y="386" textLength="12.2" clip-path="url(#terminal-3199212258-line-15)">
</text><text class="terminal-3199212258-r7" x="48.8" y="410.4" textLength="231.8" clip-path="url(#terminal-3199212258-line-16)">Messages&#160;(last&#160;30d)</text><text class="terminal-3199212258-r1" x="1708" y="410.4" textLength="12.2" clip-path="url(#terminal-3199212258-line-16)">
</text><text class="terminal-3199212258-r8" x="48.8" y="434.8" textLength="366" clip-path="url(#terminal-3199212258-line-17)">&#160;&#160;▂&#160;▁▃&#160;&#160;▁&#160;▂▂▁&#160;&#160;▁&#160;█▂▃▂&#160;&#160;&#160;&#160;▁▁▃&#160;▂</text><text class="terminal-3199212258-r1" x="1708" y="434.8" textLength="12.2" clip-path="url(#terminal-3199212258-line-17)">
</text><text class="terminal-3199212258-r10" x="48.8" y="459.2" textLength="536.8" clip-path="url(#terminal-3199212258-line-18)">2026-02-04&#160;&#160;····················&#160;&#160;2026-03-13</text><text class="terminal-3199212258-r1" x="1708" y="459.2" textLength="12.2" clip-path="url(#terminal-3199212258-line-18)">
</text><text class="terminal-3199212258-r1" x="1708" y="483.6" textLength="12.2" clip-path="url(#terminal-3199212258-line-19)">
</text><text class="terminal-3199212258-r7" x="48.8" y="508" textLength="256.2" clip-path="url(#terminal-3199212258-line-20)">Tool&#160;calls&#160;(last&#160;30d)</text><text class="terminal-3199212258-r1" x="1708" y="508" textLength="12.2" clip-path="url(#terminal-3199212258-line-20)">
</text><text class="terminal-3199212258-r11" x="48.8" y="532.4" textLength="366" clip-path="url(#terminal-3199212258-line-21)">&#160;&#160;▁&#160;▁▃&#160;&#160;&#160;&#160;▂&#160;▁&#160;&#160;&#160;&#160;█▂▂▁&#160;&#160;&#160;&#160;▁▁▂&#160;▁</text><text class="terminal-3199212258-r1" x="1708" y="532.4" textLength="12.2" clip-path="url(#terminal-3199212258-line-21)">
</text><text class="terminal-3199212258-r1" x="1708" y="556.8" textLength="12.2" clip-path="url(#terminal-3199212258-line-22)">
</text><text class="terminal-3199212258-r7" x="48.8" y="581.2" textLength="268.4" clip-path="url(#terminal-3199212258-line-23)">Top&#160;5&#160;Most&#160;Active&#160;Days</text><text class="terminal-3199212258-r1" x="1708" y="581.2" textLength="12.2" clip-path="url(#terminal-3199212258-line-23)">
</text><text class="terminal-3199212258-r2" x="24.4" y="605.6" textLength="170.8" clip-path="url(#terminal-3199212258-line-24)">&#160;&#160;2026-02-24&#160;&#160;</text><text class="terminal-3199212258-r8" x="195.2" y="605.6" textLength="305" clip-path="url(#terminal-3199212258-line-24)">█████████████████████████</text><text class="terminal-3199212258-r2" x="500.2" y="605.6" textLength="390.4" clip-path="url(#terminal-3199212258-line-24)">&#160;11.0K&#160;msgs,&#160;16&#160;sess,&#160;2.1K&#160;tools</text><text class="terminal-3199212258-r1" x="1708" y="605.6" textLength="12.2" clip-path="url(#terminal-3199212258-line-24)">
</text><text class="terminal-3199212258-r2" x="24.4" y="630" textLength="170.8" clip-path="url(#terminal-3199212258-line-25)">&#160;&#160;2026-02-10&#160;&#160;</text><text class="terminal-3199212258-r8" x="195.2" y="630" textLength="134.2" clip-path="url(#terminal-3199212258-line-25)">███████████</text><text class="terminal-3199212258-r2" x="329.4" y="630" textLength="353.8" clip-path="url(#terminal-3199212258-line-25)">&#160;5.1K&#160;msgs,&#160;6&#160;sess,&#160;854&#160;tools</text><text class="terminal-3199212258-r1" x="1708" y="630" textLength="12.2" clip-path="url(#terminal-3199212258-line-25)">
</text><text class="terminal-3199212258-r2" x="24.4" y="654.4" textLength="170.8" clip-path="url(#terminal-3199212258-line-26)">&#160;&#160;2026-02-26&#160;&#160;</text><text class="terminal-3199212258-r8" x="195.2" y="654.4" textLength="134.2" clip-path="url(#terminal-3199212258-line-26)">███████████</text><text class="terminal-3199212258-r2" x="329.4" y="654.4" textLength="353.8" clip-path="url(#terminal-3199212258-line-26)">&#160;4.9K&#160;msgs,&#160;6&#160;sess,&#160;734&#160;tools</text><text class="terminal-3199212258-r1" x="1708" y="654.4" textLength="12.2" clip-path="url(#terminal-3199212258-line-26)">
</text><text class="terminal-3199212258-r2" x="24.4" y="678.8" textLength="170.8" clip-path="url(#terminal-3199212258-line-27)">&#160;&#160;2026-03-11&#160;&#160;</text><text class="terminal-3199212258-r8" x="195.2" y="678.8" textLength="122" clip-path="url(#terminal-3199212258-line-27)">██████████</text><text class="terminal-3199212258-r2" x="317.2" y="678.8" textLength="353.8" clip-path="url(#terminal-3199212258-line-27)">&#160;4.8K&#160;msgs,&#160;9&#160;sess,&#160;561&#160;tools</text><text class="terminal-3199212258-r1" x="1708" y="678.8" textLength="12.2" clip-path="url(#terminal-3199212258-line-27)">
</text><text class="terminal-3199212258-r2" x="24.4" y="703.2" textLength="170.8" clip-path="url(#terminal-3199212258-line-28)">&#160;&#160;2026-01-20&#160;&#160;</text><text class="terminal-3199212258-r8" x="195.2" y="703.2" textLength="97.6" clip-path="url(#terminal-3199212258-line-28)">████████</text><text class="terminal-3199212258-r2" x="292.8" y="703.2" textLength="353.8" clip-path="url(#terminal-3199212258-line-28)">&#160;3.7K&#160;msgs,&#160;6&#160;sess,&#160;766&#160;tools</text><text class="terminal-3199212258-r1" x="1708" y="703.2" textLength="12.2" clip-path="url(#terminal-3199212258-line-28)">
</text><text class="terminal-3199212258-r1" x="1708" y="727.6" textLength="12.2" clip-path="url(#terminal-3199212258-line-29)">
</text><text class="terminal-3199212258-r7" x="48.8" y="752" textLength="183" clip-path="url(#terminal-3199212258-line-30)">Longest&#160;Session</text><text class="terminal-3199212258-r2" x="231.8" y="752" textLength="439.2" clip-path="url(#terminal-3199212258-line-30)">&#160;&#160;1167&#160;messages&#160;·&#160;44.5h&#160;·&#160;2026-02-14</text><text class="terminal-3199212258-r1" x="1708" y="752" textLength="12.2" clip-path="url(#terminal-3199212258-line-30)">
</text><text class="terminal-3199212258-r1" x="1708" y="776.4" textLength="12.2" clip-path="url(#terminal-3199212258-line-31)">
</text><text class="terminal-3199212258-r1" x="1708" y="800.8" textLength="12.2" clip-path="url(#terminal-3199212258-line-32)">
</text><text class="terminal-3199212258-r1" x="1708" y="825.2" textLength="12.2" clip-path="url(#terminal-3199212258-line-33)">
</text><text class="terminal-3199212258-r1" x="1708" y="849.6" textLength="12.2" clip-path="url(#terminal-3199212258-line-34)">
</text><text class="terminal-3199212258-r1" x="1708" y="874" textLength="12.2" clip-path="url(#terminal-3199212258-line-35)">
</text><text class="terminal-3199212258-r1" x="1708" y="898.4" textLength="12.2" clip-path="url(#terminal-3199212258-line-36)">
</text><text class="terminal-3199212258-r1" x="1708" y="922.8" textLength="12.2" clip-path="url(#terminal-3199212258-line-37)">
</text><text class="terminal-3199212258-r1" x="1708" y="947.2" textLength="12.2" clip-path="url(#terminal-3199212258-line-38)">
</text><text class="terminal-3199212258-r1" x="1708" y="971.6" textLength="12.2" clip-path="url(#terminal-3199212258-line-39)">
</text><text class="terminal-3199212258-r1" x="1708" y="996" textLength="12.2" clip-path="url(#terminal-3199212258-line-40)">
</text><text class="terminal-3199212258-r12" x="0" y="1020.4" textLength="36.6" clip-path="url(#terminal-3199212258-line-41)">&#160;q&#160;</text><text class="terminal-3199212258-r2" x="36.6" y="1020.4" textLength="61" clip-path="url(#terminal-3199212258-line-41)">Quit&#160;</text><text class="terminal-3199212258-r12" x="97.6" y="1020.4" textLength="36.6" clip-path="url(#terminal-3199212258-line-41)">&#160;/&#160;</text><text class="terminal-3199212258-r2" x="134.2" y="1020.4" textLength="85.4" clip-path="url(#terminal-3199212258-line-41)">Search&#160;</text><text class="terminal-3199212258-r12" x="219.6" y="1020.4" textLength="36.6" clip-path="url(#terminal-3199212258-line-41)">&#160;?&#160;</text><text class="terminal-3199212258-r2" x="256.2" y="1020.4" textLength="61" clip-path="url(#terminal-3199212258-line-41)">Help&#160;</text><text class="terminal-3199212258-r12" x="317.2" y="1020.4" textLength="36.6" clip-path="url(#terminal-3199212258-line-41)">&#160;m&#160;</text><text class="terminal-3199212258-r2" x="353.8" y="1020.4" textLength="85.4" clip-path="url(#terminal-3199212258-line-41)">Memory&#160;</text><text class="terminal-3199212258-r12" x="439.2" y="1020.4" textLength="36.6" clip-path="url(#terminal-3199212258-line-41)">&#160;t&#160;</text><text class="terminal-3199212258-r2" x="475.8" y="1020.4" textLength="73.2" clip-path="url(#terminal-3199212258-line-41)">Tasks&#160;</text><text class="terminal-3199212258-r12" x="549" y="1020.4" textLength="36.6" clip-path="url(#terminal-3199212258-line-41)">&#160;p&#160;</text><text class="terminal-3199212258-r2" x="585.6" y="1020.4" textLength="73.2" clip-path="url(#terminal-3199212258-line-41)">Plans&#160;</text><text class="terminal-3199212258-r12" x="658.8" y="1020.4" textLength="36.6" clip-path="url(#terminal-3199212258-line-41)">&#160;s&#160;</text><text class="terminal-3199212258-r2" x="695.4" y="1020.4" textLength="73.2" clip-path="url(#terminal-3199212258-line-41)">Stats&#160;</text><text class="terminal-3199212258-r12" x="768.6" y="1020.4" textLength="36.6" clip-path="url(#terminal-3199212258-line-41)">&#160;h&#160;</text><text class="terminal-3199212258-r2" x="805.2" y="1020.4" textLength="97.6" clip-path="url(#terminal-3199212258-line-41)">History&#160;</text><text class="terminal-3199212258-r12" x="902.8" y="1020.4" textLength="36.6" clip-path="url(#terminal-3199212258-line-41)">&#160;r&#160;</text><text class="terminal-3199212258-r2" x="939.4" y="1020.4" textLength="97.6" clip-path="url(#terminal-3199212258-line-41)">Refresh&#160;</text><text class="terminal-3199212258-r13" x="1561.6" y="1020.4" textLength="12.2" clip-path="url(#terminal-3199212258-line-41)">▏</text><text class="terminal-3199212258-r12" x="1573.8" y="1020.4" textLength="24.4" clip-path="url(#terminal-3199212258-line-41)">^p</text><text class="terminal-3199212258-r2" x="1598.2" y="1020.4" textLength="97.6" clip-path="url(#terminal-3199212258-line-41)">&#160;palette</text>
    </g>
    </g>
</svg>
